/* XPM */
static char *result[] = {
/* columns rows colors chars-per-pixel */
"64 64 37 1 ",
"  c #B38C6C",
". c #C6A07D",
"X c #C8A787",
"o c #CBAD8E",
"O c #D0AE8A",
"+ c #D0B08D",
"@ c #CCAF91",
"# c #CEB294",
"$ c #CFB498",
"% c #D2B595",
"& c #D5B896",
"* c #D9BC97",
"= c #D2B699",
"- c #D6BA9C",
"; c #D9BE9E",
": c #D7BDA1",
"> c #D9BFA1",
", c #DAC09F",
"< c #D7C0A3",
"1 c #DCC3A4",
"2 c #DDC6A9",
"3 c #DEC9AC",
"4 c #DFCBB1",
"5 c #E0C8A7",
"6 c #E1CBAD",
"7 c #E2CEB2",
"8 c #E1CFB9",
"9 c #E4D1B5",
"0 c #E5D4BA",
"q c #E8D7BD",
"w c #E7D8BF",
"e c #E8D8BF",
"r c #E7D7C1",
"t c #E8D7C0",
"y c #E7D8C3",
"u c #EADAC2",
"i c #EADCC9",
/* pixels */
";<22<2<4<<4<2<<222424444442<,<2442348w80888878878767888776787732",
"<1222<4<44<<222423222<24248r888044448788ryr800888888t89907833211",
"44222222448888880884442223488w80w8rw83wwr84>66263261878808823474",
"242222444424444888r8yyy887888000rw8448<187:788888431226>22>641>4",
"24322224444242<<2224780884<$,22<34344484766378tt883221:3743332&1",
"<:<-==<2<2<<<<<212223332<2222488843744008riirrtyyt8444722>124212",
":<<4444<<32434444442124222232334870riiy8rr8800087334348387873721",
"<2<<<2244<22244342::4340800yr8888w8rri0886>:62253:22343478777097",
",o<$<<2<2<<42<<$-%%1<21987378377813376623237tiqq7767715>2176>>07",
"X#<444444444444432=&;<:::::231>><2&-&571-*>>;>17972517>>6567766>",
"1474244443<43484888611441>:==->-;X .++*&&&->>O*>>1>>115567656997",
"222,<22344444433223747908238798781<-&&+1;-&>577ttiii9iiyyiuy0087",
"123322247744844488887800999990009993;-;15786660979tttt099790t890",
"<<<2<233433143447422267808989908900090w0q87777000099tttt9tqqt09t",
"<<<1<<<<<2<<1<2<66277788098080900w00000w0878000997899q0qt0900080",
"<<<<<#,#<<<,<<,326226>>68877999989000009qq9787008t08099987989999",
",#o#,,+,,,,1,1,O,,*,,,,15565766567700097707766612251516256665766",
",,,,,,,<11<2111,,,6636666666797666676776666766666666266566677665",
",<,<<,<,1163332252256666696997968q870700t87709999997766767796666",
"<<,,,,<,,123,,,1,,,123666666*15511565555652655262566667668777655",
",,552333666663669665667769999999q77769990909796679962661>3653726",
"22,22,5,163977997779979999990090qqtqq99770079q097866621668672567",
"3352336665552555557779976666669777666679697776776699667662656667",
"5,,,53522667766997656797999999666656566555665566>61=>>1>;>;--1>1",
",111,,,,<,,&11125,,566556567766666566556676656656255-;167761&%:>",
",,,,&%,,1221,,,,,,,,55555566656799q9999977667796765761==>>=>1>>>",
"2,3,,263661,26666557666555555761*11511;1561651>1521>11>;:>;;;&*-",
",,<,,,,O%&1,&*+&*,,,&;>5>;11;>>55555151&;11>5>>&%->>&@%>:=%==%%%",
"oo,,,,*&,,,,&,11,,*;1,;*-55>&&>>215651562626666662261>665>6>*266",
",,&+,,,,=,3633365,*1*166666567771126666,5162>>>12766568715167261",
",+,,<,,,,,<122225,*151;-51&>>6553323>51;:11676621577216796611216",
"<,<,<,<==,,=-**&&&&&&&&&&>;-1>6741-X%;111>1231561>>6255715599666",
"%@%%%==%=>-=--;>>>1>>;;;::>::1373-@$>>>=->>56611218781>;55676156",
"->====%-->>1111>>->->;;-=::8423:==@==>==>>>666666155266511551556",
"---%====-=:%%->;>>>>>>::>>::$$%#$$@>11>251631>1115896>5568667861",
"-===->>>>===$$==%=$$%@%-::##::12==-$1>12578766261566865566665666",
"=%====$=$$@@oo@@@$%=%:&-=:=##-,1>>>>11>155326555>656687666766767",
"#@@@o@@$====%%%=>11>12>1::::,<2256661>6651525569q966656767677651",
"=--===$$$$$%%=::#@--->>>>>>>,,,,>>>66777655667996q9q976665555677",
"-@===->>>>>>>>>>>>>>2>2211>>1,26776666667t99766677799q9999997776",
"===:::>>111234666267666656676666656699qq969996666665556999999699",
">>1313232111212222262622556555667q999999999969q9q999999999996655",
">>>>>>>33223422262666887999909997677999999qqq9966977797779669666",
"1331333333653266666676969779976997679797999569699997967899999665",
"1>122326666767626266699769999999998q7789999969999966676666555555",
"122323626232257665655656666666997766666566966q966969766676665555",
">>1121111212226626555166355555555555553669qqtttqqqq5566665556555",
"1>>1337888978999888tttttw00eeeeetttttttqqq999qtq6999768067767976",
">>77312376699090999909w999000eeeeuqqeqqqqq9999967765667667655556",
"753333333323336376999990w0qeww0wqqqqqqqqq909queuuquqqqqq9q9qqqq7",
"22233223639796967776990909999999999999696967999999q9999999999979",
"23262333799709009000999969969w9wqqqqqqqqq9q999999999996669999767",
"2223634434243677433346469676909wq000q999999999999999699999966666",
"8880090089808008w00099979679999996799997667769696666696966666666",
"687800947077070770077707ww0wwuuuuueeeq99977769565555666656579696",
"6874488099700000076777779999999weqqeuuuq9q9qq090q99q99966955,,55",
"443442247444348000000977766666269690000q00q090eue99qeqqq61699qq9",
"2334424224487977000000w00eueeeeuequeueueu9ueuueeeeee76999qq65796",
"<<<<<242<<444444734<440weeq009709960eee099que9u099qee96795559996",
"434444339909979000www0ww00099900qq000euuue990eeeqq99997qqq999559",
"<322<2334<<44099442700073000990euueeeeeeqqeet97qeeeeqqqeuuuiqqqu",
"2<2<<o<<242234909992700770eeeeq9990eeeq0qqeq9quteee0990qqeqqqq99",
"<<##,,<444442<243377470w060w0eeeq099qeq05699qqq0669666q0999q7599",
"<435<,16444449997379377600009969999990099990q097556999976677qqq7"
};
