/* XPM */
static char *result[] = {
/* columns rows colors chars-per-pixel */
"64 64 110 2 ",
"   c #23170E",
".  c #24180F",
"X  c #261911",
"o  c #2A1D14",
"O  c #301F15",
"+  c #2E2016",
"@  c #2F2218",
"#  c #322216",
"$  c #382417",
"%  c #342519",
"&  c #392619",
"*  c #36281C",
"=  c #3B2A1C",
"-  c #3D2E20",
";  c #422C1E",
":  c #4A2E1F",
">  c #422E20",
",  c #4A2F21",
"<  c #453222",
"1  c #4B3425",
"2  c #4E3827",
"3  c #4E3A29",
"4  c #523625",
"5  c #553A26",
"6  c #5A3A26",
"7  c #553C29",
"8  c #5B3E29",
"9  c #623E2A",
"0  c #57402D",
"q  c #5D422D",
"w  c #5D4530",
"e  c #63442D",
"r  c #6B462E",
"t  c #66482F",
"y  c #634630",
"u  c #684730",
"i  c #654932",
"p  c #6B4B33",
"a  c #724730",
"s  c #734D34",
"d  c #7B4F35",
"f  c #6E5036",
"g  c #6C5139",
"h  c #735136",
"j  c #7B5237",
"k  c #74543A",
"l  c #7B5539",
"z  c #775B3F",
"x  c #7C5A3D",
"c  c #7D5D41",
"v  c #815237",
"b  c #83563A",
"n  c #89573A",
"m  c #845B3D",
"M  c #8B5B3C",
"N  c #925E3E",
"B  c #8B613F",
"V  c #92613F",
"C  c #825E41",
"Z  c #8A5F41",
"A  c #945F40",
"S  c #856244",
"D  c #8C6342",
"F  c #886548",
"G  c #8C6A4A",
"H  c #946442",
"J  c #996644",
"K  c #946946",
"L  c #9A6A46",
"P  c #956B4A",
"I  c #9C6D4A",
"U  c #94714E",
"Y  c #9D714D",
"T  c #9C7652",
"R  c #9E7954",
"E  c #A36746",
"W  c #A16C46",
"Q  c #A36E49",
"!  c #A86E4C",
"~  c #A57047",
"^  c #A4724C",
"/  c #AA754D",
"(  c #AC794F",
")  c #A47551",
"_  c #AA7650",
"`  c #A57A54",
"'  c #AD7B52",
"]  c #A57E59",
"[  c #AC7E58",
"{  c #B17752",
"}  c #B17E54",
"|  c #B17F58",
" . c #AD815A",
".. c #B28056",
"X. c #B3835A",
"o. c #B8855C",
"O. c #B6885E",
"+. c #BB8A5E",
"@. c #AD8761",
"#. c #B68961",
"$. c #BB8C62",
"%. c #BF9167",
"&. c #C08F62",
"*. c #C19265",
"=. c #C3956A",
"-. c #C5996D",
";. c #C89A6E",
":. c #C59C71",
">. c #CA9D71",
",. c None",
/* pixels */
",.,.,.,.,.,.,.,.,.,.,.,.,.,.,.,.,.,.,.,.,.,.,.,.,.,.,.,.,.,.,.,.,.,.,.,.,.,.,.,.,.,.,.,.,.,.,.,.,.,.,.,.,.,.,.,.,.,.,.,.,.,.,.,.",
",.,.,.,.,.,.,.,.,.,.,.,.,.,.,.,.,.,.,.,.,.,.,.,.,.,.,.,.,.,.,.,.,.,.,.,.,.,.,.,.,.,.,.,.,.,.,.,.,.,.,.,.,.,.,.,.,.,.,.,.,.,.,.,.",
",.,.,.,.,.,.,.,.,.,.,.,.,.,.,.,.,.,.,.,.,.,.,.,.,.,.,.,.,.,.,.,.,.,.,.,.,.,.,.,.,.,.,.,.,.,.,.,.,.,.,.,.,.,.,.,.,.,.,.,.,.,.,.,.",
",.,.,.,.,.,.,.,.,.,.,.,.,.,.,.,.,.,.,.,.,.,.,.,.,.,.,.,.,.,.,.,.,.,.,.,.,.,.,.,.,.,.,.,.,.,.,.,.,.,.,.,.,.,.,.,.,.,.,.,.,.,.,.,.",
",.,.,.,.,.,.,.,.,.,.,.,.,.,.,.,.,.,.,.,.,.,.,.,.,.,.,.,.,.,.,.,.,.,.,.,.,.,.,.,.,.,.,.,.,.,.,.,.,.,.,.,.,.,.,.,.,.,.,.,.,.,.,.,.",
",.,.,.,.,.,.,.,.,.,.,.,.,.,.,.,.,.,.,.,.,.,.,.,.,.,.,.,.,.,.,.,.,.,.,.,.,.,.,.,.,.,.,.,.,.,.,.,.,.,.,.,.,.,.,.,.,.,.,.,.,.,.,.,.",
",.,.,.,.,.,.,.,.,.,.,.,.,.,.,.,.,.,.,.,.,.,.,.,.,.,.,.,.,.,.,.,.,.,.,.,.,.,.,.,.,.,.,.,.,.,.,.,.,.,.,.,.,.,.,.,.,.,.,.,.,.,.,.,.",
",.,.,.,.,.,.,.,.,.,.,.,.,.,.,.,.,.,.,.,.,.,.,.,.,.,.,.,.,.,.,.,.,.,.,.,.,.,.,.,.,.,.,.,.,.,.,.,.,.,.,.,.,.,.,.,.,.,.,.,.,.,.,.,.",
",.,.,.,.,.,.,.,.,.,.,.,.,.,.,.,.,.,.,.,.,.,.,.,.,.,.,.,.,.,.,.,.,.,.,.,.,.,.,.,.,.,.,.,.,.,.,.,.,.,.,.,.,.,.,.,.,.,.,.,.,.,.,.,.",
"m D I K C G ) H b M T T R I H J K Y D m B I K m M S n d v H K H I  .@.] Y R Y P Y P n m K H I Y K Y P Z C m D T U Y K m m K I H ",
"J Y ' ^ J ) | _ H J  .[ O.' / ^ _  .I J J ( ^ K K I H M N / / Q ] %.=.%. .' } _  .) H H ^ ^ [ ' ' ' ) K I J I ' ( ' _ H H ( ( ~ ",
"L / .._ I _ o._ H I #.#.#.X.( ' } X.^ L W .._ I I ^ L N H / / / X.:.>.:.o.X.X.} X.' J I ( _ O.X...X.` I I J ^ | } ..' I L  .' / ",
"I / ' ) L _ o._ H J O.O.#.X.( ' } X.^ L W } ) L I ^ I A H { / (  .*.>.:.O.X...X.X.} J L ( } O.X....._ Y I H ^ X...' _ L L ' } / ",
"I / ../ L ) | ! H I X.X.#.O.' ( ....^ L W } ! I I T L A J ( / ( | =.>.=.X. .X.....} J I _ } O.X....._ Y I J ^ X.} ..( J L  .} / ",
"L / ..^ L _ { E H L O.O.#.X.( ( ..X.^ L W _ ! H I Y I A V { ( _ ' =.>.:.O.X...} ..} J Q ' } X.O.....` Y I H ^ ..} } / J L ..} / ",
"L ~ } ^ L ^ { E J L X.X.#.X.' ( ..} ^ L W } ! J I Y I A H ( / _  .*.;.=.o.X.} ' X.} J I } ..X.o....._ I I J ^ ....' ( H K ..} _ ",
"I ~ } Q L _ { W J L | | #.X._ } } X.^ I L } Q J I ^ I A J _ / _ ..%.;.-.o...} ( ..} J I ....X.......^ Y I H ^ | } _ / V L X...} ",
"I ~ } ' X...X./ J Q | | #.X.' } ....^ I W } Q J I _ Y A J _ ( ' ..+.;.-.O...} ( ..( K I ( ....O...../ Y J H Q X.} _ { V L X.} } ",
"I ~ } } o.| X.! L I | | X.X.' ' ....X.) Q } Q V ^ [ ' J J / / } ..O.;.-.X.X.} ( ..} K L ......X.} } ^ ^ J H ^ } } ( ( V I X.} ..",
"J ~ ' ..o.X.o./ J Q | | X.X.} ' ..} _ ^ / } ~ J ) [ ' J J / / } X.+.;.;.X...} ( } X.I K ........} } ^ R J N ^ X.{ ( / V I X...O.",
"J ~ { } o.X.o./ L I ' ! X.O.} ' ..} ) I W { / H ^ ' [ J J / / o.O.+.;.%.X...} ( } ..I I ' ....O.' { ^ Y L N ^ X._ ( ( N I O.' o.",
"..( { X.o.X.o._ L W _ ! | o.} } .._ ! ^ W } / J I { X.L J / / X.O.+.:.%.X...( ( ' } I I ......X...( ~ Y J N Q } } } _ N L X.X.#.",
"$.( _ ..X.X.o._ L I _ ! } O.} } .._ ^ I Q } / J I } ..L V / ( } O.+.;.%.X...} } } _ ^ I ....} X.( ( / Y J H Q X.( } _ H I X.X.#.",
"+.' _ } o.o.o.' L I / ! ' X...' } } ^ I Q } / H I } ..L J / _ } X.+.;.%.....} _ } _ Y I ( X.} X...( ^ I H A Q } ( } _ M J X.X.#.",
"$.} ( ..| o.X.' I I ! E } ....' } ( ~ ^ ^ ../ H W _ | I L / ( } X.+.;.$. .} ..( } ( ^ L _ O.} ..} { ^ Y N H W ..( ..( N L X.X.$.",
"+.{ { ..| o.{ ' I J / !  .X... .( ( ^ Y Q ../ H L { } I L ~ ( / / X.;.$.} } ..{ } ( ^ H ' X.} ....' ^ I V V L } } ..( N J ..o.#.",
"+.} } ..| o.{ { I J / _ ....X.' ( } W I ^ X.! H L ' ' I J ^ ( J J ' ;.$.....$.o.' ( Y L ' O.} ..} } ^ Q H N E ..} } ( N J  .O.$.",
"o.} ( } } o.} _ W L / _ } ..X.[ ( } Q Y / } ~ H J ' ' J J / } L J _ ;.+.( ..;.&.( ( ^ L  .o.......} / Q J N L } } } ( N J  .o.| ",
"o._ } } ..X.| _ I L / ( { ..X._ { ..Q Y ^ X.Q H J } _ J J / } L K } ;.+./ { *.&.( ..' ) ..O.' ......_ Y V N E } ....( N H [ o.Q ",
"O.' ' ' } X.| _ I L / ( ' ..O.' ( } ^ I ^ ..Q N H _ _ H L / ..V H ( *.o.~ { *.&.( ..O.O.X.X.( ..} ..) Y V N L } ' ' ( N H [ o.( ",
"X./ _ ' ' ' } _ I J Q / ( '  ._ /  .L K ^ ' Q N N ( / A L ^ _ N H ( %.O./ { *.+.) ..X...X. .' ' '  .^ I V M V ' ( ' ( M V '  ._ ",
"' ^ ( ^ _ [ _ ) I J I ^ ) ( _ ^ / ( I V L _ L M N ( ^ M H ^ ) M H / %...^ } +.+./ '  . . . .) ( _ _ I K V N V ^ / ` ) n M Y ) / ",
"^ W ^ / ) ` ! Q ` Y I ~ ^ ^ ) Y Q ) J A H ) A M M ^ W n B I / M M ^ $. .^ ) +.O... .T  . .R ~ ^ ^  .B B M n V / I ^ ^ n m V K J ",
"Q J Y Y ^ ) I I ^ ) L L I Y ^ I I ) H n P ) A M n Y L m M K Y m m I O.) L ^ X...V ..~  . .Y Y ~ Y  .V B M m V ^ V Y Y m b M B K ",
"I H Y I I Y I I Y T V L L I L H I I Z C P [ T b b L V v n V Y b m I  .R K P  . .T T Y R R T V T G T V B m v B Y L I I v l M B V ",
"L B K K P I I K P Y K B K V V M K P Z l J ] I b b V B h m V K b b K  .Y K D  . .V I P T T P V V B  .D B m j B V M K P j d x B B ",
"H M K D K K D H P U G G B B B b D K n j D ) P l l B M s j B D v x B  .U B D  .T G P G U U G B B B  .B j j j l B v H D d d l m M ",
"S n D B D D S M D G G B B B x l Z F l h C U D k j M v a h B B k j B U G B m T U B D B G G B B B B G m j h h j B j S F a a h k m ",
"B b S x S C m S S G S B m b l d m S l s x U D h h b j r h l m s h B G B l l U G B S B S S B B l c U h h h s s m b S C r r s h l ",
"z x x l c m l x c c c x x l j h x C s p z F B p r j s r r j x r p x G B j j G G x c c x c z j l z z r p r t s j l c l r e p s h ",
"x h z h l k h x x z z k k s s h k x p r k S x u r h p 9 r s h t t k S x p h F S z z k k f p h h s p e p e e r h h x k 9 9 e u s ",
"h h h p f h s h g k k k h s p s f k u q g c k e e r r 8 e r h e e h x k p p c c f k h h r e p p p e 8 e e e t r p k s 6 6 e e p ",
"p i p t p p p p g p g g p i i i i f e q i k p 8 8 r e 4 6 t r 8 0 p z f w i z c f g f t e q t r y q 6 6 6 6 9 t i g p 4 6 6 q t ",
"i y i e i y y i i y i i i e e q t i q 5 w g i 8 6 e 9 4 4 q e 5 5 e f p 0 w c g w i t t 0 0 e e q 5 4 6 5 5 6 e e i w 4 4 4 5 e ",
"q q q 0 q q q q w 0 w w 8 w 7 8 w w 7 4 w i w 2 4 0 8 , 1 5 q 4 4 q i t q w g i q w q 0 5 5 0 q 8 2 1 4 1 4 4 8 8 y 6 : , 1 4 8 ",
"0 0 0 5 5 5 8 7 0 7 7 8 8 7 4 7 7 8 2 1 7 w 8 , 1 8 7 ; , 7 7 , : 5 w 0 7 q w w 0 0 0 0 1 1 5 0 3 1 , , 1 1 1 5 8 7 4 : : , 1 7 ",
"5 2 3 2 2 3 1 3 3 3 3 3 7 1 1 1 7 3 1 > 3 7 7 > , 2 1 ; ; 1 7 ; ; 2 8 7 2 0 0 0 5 0 1 1 : < 1 1 , > > > , ; , 1 1 3 1 ; ; ; ; 1 ",
"1 < 1 < < < 1 < 1 < < 1 1 < > > 3 < - - < 3 1 = = 1 , $ & , < = = < 2 1 < 1 0 3 < 1 < < - = < 1 > ; = = = = = < < - & $ $ & = < ",
"< < - - - ; < - < = = < < = = ; - - = % > < - - = - = % % = > & % < < < - - 3 - > < > = * * = > = = % $ = % = - = & % O O $ $ > ",
"- = = = = = = = * * = = = * $ * - - * # = - - % = - & O # = = # # = - - - - - - = = * & # % = = % O # O + # # & & % O O O O O = ",
"* % % % % % % % % # # * * % # # * % + + # - - - % * # X o % * o o % * * % * - - * * # # # o % % O O o O o o + % # o o o o o o % ",
"+ + + + + + + + + + + @ + + X + + + o X O @ o o O + O X X o + X X + % @ @ @ * * @ + + o X o o + o X X X X X X O o X X X X X X o ",
"+ o o o o + o o o X o o + o . o o o o X o o + o o o X X   o o     o + + o + @ + + o o X X   X o X           X o X X .         X ",
",.,.,.,.,.,.,.,.,.,.,.,.,.,.,.,.,.,.,.,.,.,.,.,.,.,.,.,.,.,.,.,.,.,.,.,.,.,.,.,.,.,.,.,.,.,.,.,.,.,.,.,.,.,.,.,.,.,.,.,.,.,.,.,.",
",.,.,.,.,.,.,.,.,.,.,.,.,.,.,.,.,.,.,.,.,.,.,.,.,.,.,.,.,.,.,.,.,.,.,.,.,.,.,.,.,.,.,.,.,.,.,.,.,.,.,.,.,.,.,.,.,.,.,.,.,.,.,.,.",
",.,.,.,.,.,.,.,.,.,.,.,.,.,.,.,.,.,.,.,.,.,.,.,.,.,.,.,.,.,.,.,.,.,.,.,.,.,.,.,.,.,.,.,.,.,.,.,.,.,.,.,.,.,.,.,.,.,.,.,.,.,.,.,.",
",.,.,.,.,.,.,.,.,.,.,.,.,.,.,.,.,.,.,.,.,.,.,.,.,.,.,.,.,.,.,.,.,.,.,.,.,.,.,.,.,.,.,.,.,.,.,.,.,.,.,.,.,.,.,.,.,.,.,.,.,.,.,.,.",
",.,.,.,.,.,.,.,.,.,.,.,.,.,.,.,.,.,.,.,.,.,.,.,.,.,.,.,.,.,.,.,.,.,.,.,.,.,.,.,.,.,.,.,.,.,.,.,.,.,.,.,.,.,.,.,.,.,.,.,.,.,.,.,.",
",.,.,.,.,.,.,.,.,.,.,.,.,.,.,.,.,.,.,.,.,.,.,.,.,.,.,.,.,.,.,.,.,.,.,.,.,.,.,.,.,.,.,.,.,.,.,.,.,.,.,.,.,.,.,.,.,.,.,.,.,.,.,.,.",
",.,.,.,.,.,.,.,.,.,.,.,.,.,.,.,.,.,.,.,.,.,.,.,.,.,.,.,.,.,.,.,.,.,.,.,.,.,.,.,.,.,.,.,.,.,.,.,.,.,.,.,.,.,.,.,.,.,.,.,.,.,.,.,.",
",.,.,.,.,.,.,.,.,.,.,.,.,.,.,.,.,.,.,.,.,.,.,.,.,.,.,.,.,.,.,.,.,.,.,.,.,.,.,.,.,.,.,.,.,.,.,.,.,.,.,.,.,.,.,.,.,.,.,.,.,.,.,.,.",
",.,.,.,.,.,.,.,.,.,.,.,.,.,.,.,.,.,.,.,.,.,.,.,.,.,.,.,.,.,.,.,.,.,.,.,.,.,.,.,.,.,.,.,.,.,.,.,.,.,.,.,.,.,.,.,.,.,.,.,.,.,.,.,.",
",.,.,.,.,.,.,.,.,.,.,.,.,.,.,.,.,.,.,.,.,.,.,.,.,.,.,.,.,.,.,.,.,.,.,.,.,.,.,.,.,.,.,.,.,.,.,.,.,.,.,.,.,.,.,.,.,.,.,.,.,.,.,.,.",
",.,.,.,.,.,.,.,.,.,.,.,.,.,.,.,.,.,.,.,.,.,.,.,.,.,.,.,.,.,.,.,.,.,.,.,.,.,.,.,.,.,.,.,.,.,.,.,.,.,.,.,.,.,.,.,.,.,.,.,.,.,.,.,."
};
