/* XPM */
static char *result[] = {
/* columns rows colors chars-per-pixel */
"64 64 55 1 ",
"  c #AAA8A7",
". c #ACABAC",
"X c #B0AEAE",
"o c #B4B3B3",
"O c #B9B6B6",
"+ c #B9B8B7",
"@ c #B6B6B9",
"# c #B8B7B9",
"$ c #BCBBBB",
"% c #C0BEBE",
"& c #C4C1BE",
"* c #BEBEC1",
"= c #C1BFC1",
"- c #BFC2C6",
"; c #C4C3C3",
": c #C9C6C5",
"> c #C7C8C7",
", c #CBC9C6",
"< c #C6C6C9",
"1 c #C8C7C9",
"2 c #C7C8CB",
"3 c #CCCBCB",
"4 c #D1CECD",
"5 c #D3D1CE",
"6 c #CDCED2",
"7 c #D0CFD1",
"8 c #CFD0D4",
"9 c #D4D3D4",
"0 c #D8D6D5",
"q c #D7D8D7",
"w c #DAD9D6",
"e c #D6D6DA",
"r c #D8D7D8",
"t c #D7D8DD",
"y c #DCDCDC",
"u c #E0DFDE",
"i c #E1E0DF",
"p c #DDDEE1",
"a c #E0DFE1",
"s c #DFE0E2",
"d c #E4E4E4",
"f c #E8E7E6",
"g c #E7E8E7",
"h c #E9E8E7",
"j c #E6E6E9",
"k c #E8E7E8",
"l c #E7E8EA",
"z c #ECEBEB",
"x c #F0EFEF",
"c c #EFF0EF",
"v c #F0F0EF",
"b c #EEEFF0",
"n c #F0EFF0",
"m c #EFF0F1",
"M c #F2F2F2",
/* pixels */
";oo@% .o=e69t<21$&,fi0i5p5i&3yuy0j79:$379,O0ffu74fuz6gw+dfifdy<9",
"0$=<a==#7eujk;17&,,ifdiipdv9,yyuyt6u=4adw0,ihirruzfz9zy:zwzziy3z",
"d0d0k9=:=ekk6y7y5w9dfidivziuuiiw4yrh4udayiufuhfzffzM>Mu0atixfiwz",
"dfzya3==yena94wx5wfzvwfzhziiuudz9zaMduyud0fw0xMzudhv9zdv9yjzyfhz",
"wyw9307:ppzz9kyz,:izvzhdyxuhudyfyfazhiu9fd74zzzztzzzzmdzwdyz;dff",
"aazzMy0%jszM6ju9$&izhvxyuxwhiuif9fuhfwudzzufMvzzfzzzjzzMwwifqd9g",
"azdzxay%pezz<zz3:ydfzhhfzhwhf0uiudfzf4fkju3dzMzzzdzzpbjdf9dyidyg",
"zhzxn7y=tezb;Mfz&3fdzcdyvzixiyru9zzMd4ddfzdzzzzdzzzzzbjfz9dyhpdg",
"kfkkz*7396nMzdzf50ipzzwiMzhhii9i5zdzh,dfdzwzzMzjzzzwgzlMgysw9yzd",
"dxzxnw2322MMMtvy5yvqccdizxhhiq5wffdzh5dfzdyzMMzdzjbtgmgz9zyzwdhz",
"dyxzz0;179bMvdz9wizpgcdwzzcfiy5w0fyzfyzdzzwfbMbzzfz9zzdzdfzhyczc",
"dukak=;231zMMMv55fhfhcyighzhd9,huudfhidjzzdzbMzzfjdppmzzzyjuhzzf",
"9khxz,$Xw6zzwfzuwzvhzzyddhzhyw5fzdyyzhgzzfyzzMfzdzdbdzzbdppzwyii",
"kkhxd;<O9<dzydfzihzdhz0igczzf55wfdfhvyfzzfjzMMyzzlwjgMgMdczhuyid",
"jxfxf9;9e6ddzdffhhihhvwydzfzzw05fdyvh5zgzzbzzMafbmzzdMzzdpfcdfyz",
"andkj4;;<<zdjjyfdzdzvfyydiziviiizdyMvdzyzjzzdMzzzMmzzMhhwizpfdzv",
"zzzzfy#3$<zb<jffgzizzziipighhg0fdfdvzihvzzkzdMffyMMMbMzdtjzfdyzz",
"dxkzj9#:1*zz2z9zdhiydyihphdhMd,dffwMzw92kazzjMezMMzdzMzzxazfudMz",
"zzzza4;4<3zndzyhddfyizzhdhzhMd0fzdwMdwyizyMzdMdfzzbzzMzzzfjxhyxz",
"MMzzj<79<9zztdyhizzdizzdzMMvMgifgdwhzivzkdbzbzzzMgzfdMMaMkyv95yz",
"lnkna<47;ejkfzddfzvdzwixyvzvvvwhdzqfifvzMfzzzbjyzzzzwzzzjfdv,3yz",
"nzxnp7==99wazwydfcviziihpvchzMwhiMfMvwvvmhzszzzzzMzyygzzdzzzfwzx",
"nMnxaw16y9dzkw;fyzvhviwhfvyvxviffMgMzdzz*gyMzzzfdMz6yjzyxn0fzd0n",
"MMnzpy3=t9wzya5gdcvfwiihff9vzMuifMdzzfMzzzydzvzdwMmd9gmddnxzzyik",
"MMMnra29a7an;99dfMMgh5fhuslzhvzfzMdMcyMvzzzwzmvzyMddtzzfyfkfz0ch",
"MMxjre19rrkk2qedhhmgwhi0iiwcxMdizMyzMhMvzMbfzbxzfxz9izmzwdzzdydv",
"MMxxay2=yyax38digzMm$hihyfwzivdimMpvvzMzMa3kzMbjfMz<ujMfa9nzMwwf",
"MxMfrr677ranj9dszmmmfiwydiffdxuzMMyMzfMMnMzfzbzdzbz7twzfzwMfMwfx",
"MMxh0y7yprjauuzygzzMzi00gz9dczu1zz9zhhMvzbzfbMzzvnz$wMzfpwMzhiiz",
"nnxxw617aajjaazzgzzzh9w5pd<idcddzMwxxhvzMMzdzzzzMv99tdn49fzz4uix",
"xnzhyy6pjjla3azzdzysdiwipg>wdMzhMn9zzifzzzzzzzxzzbzjdMza7zzzih0d",
"MMxzp7tyaljj9jkzdfzyMwwi3hwdzcgdzj,hvdzfzzzfbzfzfnjzzuzMezhxfdhz",
"xfxzrrerbzez2djziiucv&ww3MvMhvhzkj7hzhfzgjzdbzdzfh0zdafM0uzzju0f",
"hzfzpe67jzzdpddzyydvf&iw9vwffvhhda4fwiuzffdfbbfyudwz0zdh:9zjuduy",
"xxkaae#2zbpztydjdyyzf5i&wMchigfzep3z9fhdfgffbbzufd4y9xuf;ykff04x",
"nfaaae%tbjpzedjjjbyzdi5,0xfifzifpb9y04ufddpdz<kd3u3yyfuw3dkyw04x",
"xaxfap=ttd2bjpdf0zpzv,04whwhiviffz0uffifftyfkffydi0fddw9;wzzhuwf",
"kxMaet*tejpj9wlj6fzMM$4Oii5w5zxzdh5ifdhy9ydfzhzkfyfMyj0do0iif5ui",
"zxMupt<tsbpdzplbdivMx,%%uxw50hzzddwuuxwddjdadidzd5yfud70&0iiw5iu",
"hxhhaa<ppbedytbzfvMMz,X&wi4,0vzfdd0iufudfzzzfwzzuu95wdy4%yui&05w",
"khhhaa<ypbplMpbbyvvMz5;9qw,9,cchdw9fwfiiizdffjzf3fyu7fu4:=u9w4,5",
"fffuau=apbplpplbizhMz,5yiy50,giid9wiwhwifhpguuddiwu9wxyy3;w5uw,0",
"faaurp7lsbjljdjsdzfMzi:5hfd55fifhdwu3hwsazw9yydzywz;yuh4:3%9ww44",
"ffuureeksjpbjplltzizzi5>dip3wfifizwwqgywygddjyijuu337di0%4O,w&&5",
"ffarap7asbplggzzzldshv0&fp0,5yif0zywifwwwdzydpafu9307yuu,&w&5&&w",
"kzr1apekllpbdgmggdypzi54yc755yfhizww5yp9pdMwwwqyuu<99yd9,%&ww&i5",
"zkauaaeamlszszcgdqpyhi+>gcdu4ihh9fwywy33tdd9iwdwuy;34fw9&%&w05i5",
"zkarapellljbbjlzdtigdi+$scchihhiihw9wiw9fdp9wwp,ud99fhd,%0ii&&w&",
"zkfaap6aalplljjlt8img8*%9cgdydddyfyy9dy9f9zyywy6wi9ytdd33,303$05",
"jffupp2elpplljjbp5il7>++9hcgzggzfdw4ywyqddzpd5u0ui95wdd;7:,d0;w3",
"djjwap6pljpjjjljsqyl9q%oqf5wiidfgqwwd3yqsdztd3dtwz4y9jp3;+;d%,&5",
"fkkapp6aljpjbpbatqizi0,;9d8wwyghzwwi9w38pydedwyyudw%3dyy#<$d<;,,",
"yzkjat8pjjplppalsqqgq4>+3i8fq9qyz3dw9zqw6geddpd9fzt3ydy6-93d%<,5",
"zzkaat6pjppjpplls9qs5&%$yh*gyppdzjy98yfs<j9dfypywz29tgy-99ddX,,5",
"kzzjj8ttppplpjllssqss>3%yh5iuigsgzy39yzd9j6yj9ufwd3ydky;w69yO999",
"zzzzj868ptpptjja6qqqi>3o9yqtyigsgpdiytzf9ydfzywzdde6pky98,9d;9y9",
"lbblpt88p8ppjtpjt5q8s5$+86;w9pzybld69pyt9tfdzdyk0jej7byt92fd9,p9",
"jbjbjt8tt6tt8tpjpqysdpo+992q3fypye9zf9dw9tkewwuuyzp7tzy><<9dd599",
"lblbpt8tt6p8*tjjsqtssu %tpO3<ddwpje96dfy99zsd99u9ft2pzy@*;pdidoq",
"jbjjpt8tt2tttjptq9spq3X+wg9i;dsy3feeqfyedtztsw3y9fw27zw$;>jygi59",
"bbljttttt86ppjpp,3sp9>o$yw97.p9q9jpjljfepdbpdi9yud9<2gw<93tww999",
"jblatt68ttttttpt-qqt3$+o99t;;q9qtp8spdddpdpdzi,49z9*9s9ef,yyi99d",
"annat868ttspttpp>8qq5>++$>:;<926ea6sdwpyddppgdw;3f,*6y942<uzpywy",
"lnnat868ttjptttj68s89>%%>7-3;6699y9dsty9ydspgf,o<d<9;dy;<3ddi99w"
};
