/* XPM */
static char *result[] = {
/* columns rows colors chars-per-pixel */
"64 64 189 2 ",
"   c #891C14",
".  c #A31D1D",
"X  c #8B2116",
"o  c #8C241B",
"O  c #862B1C",
"+  c #8C2C1F",
"@  c #94251D",
"#  c #9A271D",
"$  c #962D1D",
"%  c #9B2B1D",
"&  c #91301F",
"*  c #9C341D",
"=  c #9E3B1F",
"-  c #A6211E",
";  c #A22B1E",
":  c #A6321E",
">  c #AA321F",
",  c #A43B1E",
"<  c #8C2D22",
"1  c #962C20",
"2  c #9B2F23",
"3  c #9B2D2A",
"4  c #893024",
"5  c #953123",
"6  c #9C3223",
"7  c #953A26",
"8  c #9D3B25",
"9  c #96352D",
"0  c #9D372B",
"q  c #963D2A",
"w  c #9C3B2A",
"e  c #9D3230",
"r  c #9D3E31",
"t  c #AB2623",
"y  c #A52F20",
"u  c #AC2C22",
"i  c #AF2A29",
"p  c #B22C24",
"a  c #A43323",
"s  c #AD3323",
"d  c #A43B24",
"f  c #AC3B25",
"g  c #A13429",
"h  c #AD342B",
"j  c #A33C2A",
"k  c #AB3D2A",
"l  c #B43525",
"z  c #BA3724",
"x  c #B33C26",
"c  c #BB3926",
"v  c #B4342A",
"b  c #B33D2A",
"n  c #BC3D2A",
"m  c #A43E31",
"M  c #AE3D35",
"N  c #B23D31",
"B  c #C13C26",
"V  c #C33E29",
"C  c #9E4022",
"Z  c #9B422C",
"A  c #9E4232",
"S  c #9F4837",
"D  c #9D433A",
"F  c #A54223",
"G  c #AC4325",
"H  c #A5432C",
"J  c #AC442C",
"K  c #A5492D",
"L  c #AD4B2D",
"P  c #B34326",
"I  c #BB4326",
"U  c #B24B26",
"Y  c #BE4927",
"T  c #B3442A",
"R  c #BB432A",
"E  c #B44B2C",
"W  c #BC4B2B",
"Q  c #B6522D",
"!  c #BC522D",
"~  c #BE582F",
"^  c #A54432",
"/  c #AB4532",
"(  c #A54A34",
")  c #AC4B34",
"_  c #A64738",
"`  c #AB4439",
"'  c #A54D3C",
"]  c #AC4D3B",
"[  c #B44532",
"{  c #BA4730",
"}  c #B34C33",
"|  c #BB4D32",
" . c #B3453B",
".. c #B24D39",
"X. c #AE5134",
"o. c #A7503C",
"O. c #AD523C",
"+. c #B55135",
"@. c #BC5334",
"#. c #BD5935",
"$. c #B4533A",
"%. c #BB553A",
"&. c #B45A3C",
"*. c #BC5B3C",
"=. c #BC603D",
"-. c #C14527",
";. c #C34B27",
":. c #C4442A",
">. c #C8472C",
",. c #C44C2A",
"<. c #C94D2E",
"1. c #C5522D",
"2. c #CA542E",
"3. c #C5582F",
"4. c #CB582F",
"5. c #D35E2D",
"6. c #C34631",
"7. c #C24D33",
"8. c #CB4E31",
"9. c #C34E3A",
"0. c #C45433",
"q. c #CA5532",
"w. c #C55935",
"e. c #CC5A33",
"r. c #C1543A",
"t. c #CC563A",
"y. c #C45B3B",
"u. c #CA5C3A",
"i. c #D05E34",
"p. c #CD6036",
"a. c #C5623D",
"s. c #CC623C",
"d. c #CF683F",
"f. c #D26136",
"g. c #D56836",
"h. c #D3653B",
"j. c #D8673B",
"k. c #D5693D",
"l. c #DA6B3D",
"z. c #D9703D",
"x. c #AF4D40",
"c. c #A35142",
"v. c #AF5341",
"b. c #AE5943",
"n. c #B45442",
"m. c #BA5442",
"M. c #B55C43",
"N. c #BC5D43",
"B. c #BE5F49",
"V. c #BD6144",
"C. c #BD624B",
"Z. c #BF6850",
"A. c #C35441",
"S. c #C35D42",
"D. c #CB5C42",
"F. c #C35E49",
"G. c #C95E4B",
"H. c #C46343",
"J. c #CB6442",
"K. c #CD6944",
"L. c #C3634B",
"P. c #C9674D",
"I. c #C46A4A",
"U. c #CC6A4B",
"Y. c #D16543",
"T. c #D36B43",
"R. c #DB6E42",
"E. c #D1654B",
"W. c #D46C4C",
"Q. c #D77145",
"!. c #DB7244",
"~. c #DA7946",
"^. c #D6724B",
"/. c #D9734D",
"(. c #C56652",
"). c #C66950",
"_. c #CA6B51",
"`. c #C96F59",
"'. c #D46F51",
"]. c #D86F51",
"[. c #CE7153",
"{. c #C5715B",
"}. c #D57552",
"|. c #DA7551",
" X c #D97954",
".X c #D27259",
"XX c #D87558",
"oX c #E1805A",
"OX c None",
/* pixels */
"^.T.T.^.T.f.0.U.^.!.Q.Y.u.1.OXG.E.E.'.'.J.OXP.r.d.h.T.J.OXY.T.^.^.T.k.OXQ.T.H.Y.OXOXOXy.G.y.].oX^.OXT.W.!.^.T.OXOXJ.T.Y.T.T.g.Y.",
"T.f.j.i.2.:.I @.i.i.e.e.,.,.7.>.,.8.,.q.,.| 0.,.,.2.e.e.#.1.,.,.1.e.e.a.e.e.q.2.1.,.7.;.:.>.f.R.j.p.e.4.4.i.2.<.0.0.I ,.4.4.i.e.",
"K.T.T.,.R R x ) 0.@.W 1.W W { c R 8.w.w.} J Y Y x R W [ m.0.I W 1.p.J.&.w.1.1.1.I ;.} @.1.3.3.0.4.#.w.3.Y ! I I E y.W W ,.0.e.@.",
"_.U.N.OXD ' A c.c.c.A $.S.H.OXy.0.OX*.N.OXOXOXOXOXc.n.$.C.B.N.OX&.&.M.V.&.+.K *.H.a.J.*.&.E H ^ ] ` M.M.) K $.$.$.*.} OXOX%.N.%.",
"Q.!.l.) j j J j G H H w.,.2.q.u.i.u.s.e.e.e.2.1.,.9.8.q.q.8.q.@.=.Q ~ ! U P , w.f.g.i.e.,.1.b s l l y.y.| *.e.e.q.1.,.,.0.:.,.,.",
"e.e.e.J % % d G W T 7 w.,.W ;.2.p.w.e.4.2.e.,.,.;.n c >.q.u.q./ &.#.=.G , , * +.u.0.0.2.,.| / f P P T T T @.e.4.e.1.,.;.+.8.0.e.",
") #.&.OXj 0 j ) X.) ' V.) J OXOXOXOXOX} OXL L E OXOXT OX} ..m.OXb.M.b.A / K OXOX] ^ H L +.%.OX( OXOXH ) ..OXOXOXOXOXH OXOX) OXOX",
"d.p.e.e.q.2.1.T.h.h.h.f.q.,.H.f.u.e.e.q.1.y.T.T.k.h.q.8.%.9.t.t.u.u.0.y.e.u.e.u.f.i.a.h.u.u.e.0.0.0.u.0.e.u.s.f.y.) +.+.[ J a a ",
"s.4.4.e.1.,.,.K.T.R.e.-.-.I w.e.4.4.2.,.,.W u.e.e.e.1.,.| V :.<.1.e.0.} 0.,.,.,.4.f.w.e.e.e.4.,.,.W w.,.;.;.q.f.@.j k G k f ; : ",
"+.+.E E J E } N.a.H.E J [ j X.+.@.} @.} @.&.$.+.J E T | } c b { @.+.} ' @.J T E @.y.&.#.0.0.@.E ! @.L.} T E #.V.b.9 9 < 6 6 6 w ",
"y.J.w.+.u.e.s.s.s.e.#.Z ( ^ ^ ^ ^ D K.h.h.h.p.q.W %.S.0.u.f.k.y.1.q.q.s.u.s.d.0.1.e.s.h.k.J.S.T.T.k.f.0.,.y.f.h.d.u.e.e.0.0.e.u.",
"e.f.e.%.w.;.,.;.q.f.@.6 W P k d 6 j T.j.l.e.,.:.R W ;.,.;.1.2.W I ,.,.i.e.q.p.0.;.2.e.e.i.y.&.e.i.e.e.,.;.a.e.4.2.2.,.,.0.;.2.e.",
"#.u.s.V.*.T T W @.0.H 5 H T G 6 @ 5 V.H.H.T b x d H P f d J ) ^ P W G W ! 0.*.$.W E E H E ) c.+...J E P | +.+.} P H f J X.T W E ",
"*.W. XH.r.r.r.OXw.y.a.u.a.a.OXe.K.K.T.u.a.OXa.d.u.u.%.H.( S ' ' ( ' D ) 1.w.s.T.T.K.%.1.p.J.T.J.h.V.[ r.} { k ..] %.J.J.G.S.F.m.",
"p.g.l.i.,.;.,.1.,.1.4.4.4.p.a.e.e.,.1.,.2.%.e.4.,.1.,.8.Z F H d k d 6 [ ;.2.e.p.h.e.} -.;.2.f.j.g.y.T R b z l l f R q.<.<.<.:.6.",
"#.w.1.1.w.! $.E ;.I 1.3.1.w.$.e.w.,.I T 0.$.E W P x P E 7 8 K H 8 # # / W W Y W @.@.^ x R b 0.T.J.n.g a y % ; u a / y.0.0.:.z n ",
"%.N.$.OXW %.a.J.a.H.S.W y.H.U.H.J.J.OXV.L.F.n.B.] OXOXOXOX$.&.OXOX@.=.OXH.y.&.OXV.L.F.m.F.n.OXH.[.L. .../ ] r.*.%.r.%.| OXS.U.'.",
",.:.:.r.1.,.e.e.h.f.#.R ,.2.i.g.f.K.W q.q.8.q.6.7.,.,.q.e.e.e.s.u.i.e.1.2.<.0.| q.q.8.8.8.6.a.j.!.h.<.,.,.J.e.e.q.2.,.;.w.k.R.T.",
"4.1.! *.W ;.1.0.0.w.} x I -.0.Q.T.J.J w.u.q.>.B n W ,.Y 2.4.2.e.#.p.w.Y Y Y y./ 0.u.0.,.B c @.e.4.4.e.1.@.N.w.2.4.! Y ;.! e.e.4.",
"OX+.X.OX$...K OXOX( OXH } ) OXN.I.C.m.m.x.) [ { OXOX@...+.OX+.&.OX=.a.OX&.m.H.H.S.%.%.OX{ OXOX%.&.( &.M.&.OXOXOXOX] $.OXOXV.N.) ",
"J T b k f s f E U U ! ! @.#.+.1.t.q.q.q.7.9.,.e.f.k.k.k.p.5.f.z.z.z.~.I.,.0.i.f.f.i.e.1.2.2.e.e.f.K.u.1.e.u.u.i.u.9.9.t.q.q.u.,.",
"k T b y u a k k P G ! ! W ! K 0.u.q.8.V V 7.;.,.4.0.u.0.#.5.p.k.!.k.z.I.:.I -.i.!.T.w.;.,.1.e.4.4.a.w.;.;.-.4.p.0.V B >.q.q.q.T ",
"j ^ / k ^ j ] X.L j , K L K OX} } } } R n } } E J ^ ' ( o.#.X.L ~ a.=.V.$.%.[ ) *.H.OX} E K E ! #.N.V.+.+.} +.+.) b f T } } $...",
"k.T.T.H.J.k.T.h.e.1.w.d.s.e.e.e.0.,.y.k.s.u.0.y.N.r ^ ^ H K K 8 Y w.p.g.s.h.Q.s.p.s.s.e.u.u.0.,.u.f.k.k.d...T k H f f f ,.,.u.h.",
"i.e.e.*.r.e.e.e.4.;.0.u.4.4.e.1.<.W 1.1.;.;.;.,.| a 2 d j K H & I ;.,.i.R.j.K.w.f.1.,.,.,.w.@.;.2.e.e.e.w.) P x x k a : ,.,.2.e.",
"J [ +.' ( J H P P E +.$.W ! W G P P H / J d j G H @ @ 6 Z A Z 4 d J k [ H.a.N.+.#.@.E T [ V.$.@.E E / ..' S j j 8 8 d j $.W W E ",
"%.W. XJ.0.y.r.OX0.u.s.u.d.K.OXp.J.K.J.u.u.*.a.k.s.u.%.H.%.y.J.J.D.D.A.OX,.q.d.T.Q.T.S.1.p.k.K.k.T.H.y.J.D.D.D.D.m.y.G.D.D.D.A.m.",
"e.h.R.i.<.:.,.| ,.,.e.2.4.e.a.4.i.,.1.,.2.%.e.q.2.,.,.0.[ 0.q.<.<.>.>.9.,.,.i.e.f.e.[ -.,.1.f.j.g.H.:.e.2.8.>.:.R W e.<.<.<.:.:.",
"#.3.1.! #.! +.E Y P ! 3.3.1.&.3.w.,.W P w.O.[ E x f P E K W y.0.,.c c } W W Y E +.@.^ x R T #.T.Y.m.E #.0.@.R z k T %.0.| R z n ",
"N.B.$.OXH.H.a.U.a.w.&.&.&.X.&.&.Q H OXF.L.L.m.m.] &.m.@.y.y.y.+.OX| y.H.H.H.&.E W y.J.H.J.J.B.U.K.K.H.r.| OXa.Y.T.J.y.0.OXy.0.y.",
"e.p.e.#.1.,.2.,.e.e.y.=.~ ~ U U G , P 2.q.<.q.8.6.r.0.1.<.e.f.0.,.,.2.e.e.e.s.0.,.2.i.f.h.e.%.i.g.i.i.2.,.w.e.4.e.e.2.,.0.,.2.i.",
"e.h.s.*.w.W W ;.e.e.+.&.=.=.F , , & d 0.u.8.:.c n | I I P I W T Y ,.Y 4.2.2.w.@.Y 1.0.W W @.v.0.@.W 1.;.;.#.w.1.W W P P @.;.,.0.",
"#.a.a.V.#.[ [ OXm.A.N.M.C.O.OX$.+./ OX%...OXS.y.y.OX} H OX$.b.OXOX$.OXOX*.y.*.L.a.@./ K X.( OX( OXOXV.C.P.`.(.L.OX( ] ) $.) H d ",
"s.e.e.e.2.1.,.9.8.t.q.q.e.,.a.e.e.e.q.1.,.0.h.k.h.i.q.1.J.k.g.h.f.q.<.#.0.2.q.1.e.e.#.+.Q L U U G L '.W.W.E.'.|._.} @.0.{ R x k ",
"p.0.2.4.! ,.;.R B :.q.q.e.E @.e.4.4.1.,.,.} 0.w.0.2.,.Y H.Y.R.f.;.:.I [ w.Y ,.,.e.p.+.Q U U U F G H .XY.Y.E.W.XX(.k T J P b s f ",
"OX#.*.$.) ) } ..[ k J $.%.$.OX+.+.L j k P OXm OXm ) $.%.OXL.Z.$./ @.| M.H.$.$.OXOXOXOXK X.Z C C L %.`.P.L.)._.`.OX^ m OX1 d ) X.",
"k.T.T.S.} | | [ b s k d.i.e.e.q.1.,.b 6.n v v N  .9.t.t.t.e.t.E ,.q.i.g.h.h.T.a.i.u.u.e.q.u.0.1.e.f.h.k.a.J.i.e.e.2.1.1.1.1.e.f.",
"e.e.e.%.m P b T x s k w.4.4.e.,.,.I u l t t p t h V V <.<.u.q.f I -.:.e.!.g.J.u.f.2.,.,.;.u.@.;.2.e.e.e.w.a.2.e.4.1.,.Y W ,.2.e.",
"J ..} o.9 0 1 1 2 d m $.#.@.E [ @.` 9 e 3 1 # 2 m T R { @.@.} H d T T ` =.H.N.} #.&.E J [ V.&.| E L K ..] &.+.! E K [ ..%.@.| } ",
"w.e.u.s.u.q.u.#.1.0.e.u.u.d.#.y.t.t.t.D.9.y.5.k.R.Q.~.~.H.,.0.e.u.u.h.a.1.0.w.e.e.s.K.y.s.s.Y.h.s.a.u.u.e.J.d.e.s.9.D.t.t.u.u.@.",
"w.f.q.;.,.;.0.0.;.,.e.e.4.e.} ,.u.2.8.:.V q.5.i.g.g.g.k.@.,.,.e.e.4.e.w.;.,.4.4.4.4.a.W :.;.e.l.g.a.0.,.,.;.2.e.u.n V <.<.q.e.T ",
"+.#.@.{ T L *...| E W ! @.@.) E @.@.W b c %.p.1.3.@.=.*.+.W L E 0.#.#.%.W E E 0.0.@.&.[ Y k } U.J.M.S.E T W #.w.+.n c R @.%.%.J ",
"|./.T.N.m.D.t.J.D.u.*.y.p.u.J.d.e.a.J.d.u.s.w.0.@.( ....+.+.X.X.K.Y.d.h.s.2.W H.T.k.Y.u.0.8.r.0.r.r.|.W.J.H.d.u.y.0.0.0.y.7.r.6.",
"j.j.g.@.V >.8.8.q.2.} 0.;.1.,.2.e.u.p.4.e.4.2.,.,.s a P G L E C Y.g.j.4.,.:.I #.e.f.i.4.,.,.@.;.>.2.g.g.f.a.e.q.4.2.,.,.| >.;.4.",
"E ! w.E c n 6.@.w.@./ y.E T W w.w.+.#.1.1.0.T W W * ; d H ) / q H.K.J.T T R F ( @...E W ! @.M.@.w.@.Q ! 1.+.! ! ! T E W $.@.#.@.",
"*.T.|.H.9.r.r.OX@.0.y.y.y.a.a.e.J.J.a.u.w.&.y.p.w.w.@.N.$.y.H.S.D.S.m.( F H X.=.a.*.) Y w.J.J.J.d.=.w H 0 j 7 w r @.H.D.S.y.S.m.",
"s.j.z.i.>.;.,.W ,.1.4.e.e.e.a.e.e.,.,.,.1.@.e.e.,.<.,.1.E 1.q.8.8.>.:./ , F U L Q L C I ,.2.f.j.f.&.6 a y % % # 2 T u.2.8.8.:.6.",
"! w.1.! w.@.#.} ;.E 1.3.1.w.@.a.w.,.W T y.O.E E P P P T J @.w.0.,.n c j C = C C Z Z Z G Y b 0.T.Y.] < o X     X + J 0.w.7.:.c n ",
"@.y.+...| #.y.J.J.J.*.W y.a.K.a.J.K.*.B.H.F.m.m.x.OX@.%.y.y.S.=.*.e.H.K.N.#.+.r ] n...`  .` v.J.}.L./ ..J ] #.%.#.r.@.@.+.J.W.W.",
"<.,.:.r.,.,.e.i.f.f.%.Y ,.<.i.j.f.K.W q.2.8.8.>.6.,.,.2.e.e.e.e.p.e.q.1.2.,.w.k s ,.:.v z v %.g.!.f.<.>.,.H.e.e.e.1.,.,.0.k.R.k.",
"3.w.1.&.W ,.1.! @.0.) x I R ,.T.T.H.J 0.y.q.:.c n Y ,.W 2.4.2.w.#.e.q.Y W Y w.w j T P v l p ! e.3.3.3.1.@.N.1.3.1.W W Y E e.e.1.",
") ..^ ] ) J j / ] ] n.) / k OXV.S.OXOX%.} OXS.y.%.S.@.G OXn.S.m.V.L.S.OX&.$.H.B.%.} ..%.%.| OX&.+.OX&.V.*.OX=.w.OX*.*.a.OX*.+.OX",
"E b b P s s s $.{ { R I l u w.e.e.e.q.,.,.0.h.k.f.i.2.,.r.6.8.q.8.q.0.@.2.1.2.0.e.i.a.f.e.e.e.1.1.1.w.,.q.2.u.e.w.u.g.k.f.e.1.2.",
"J f l f a a y $.@.y.T u s ; $.e.2.e.1.,.,.} 0.0.0.q.1.Y | V n 8.0.u.7...w.Y ;.,.e.u.@.u.1.e.4.Y ,.W a.Y ,.;.e.h.*.%.w.0.1.1.,.W ",
"OXOXOXOXOXOXOXOXOXX.OX..&.) V.#.#.E ) ..%.OX] n._ H J [ OXx N [ OX..OXOXOX/ OXOX+.#.N.#.y.#.%.$.#.y.H...G OX/ O.OX_ K w K } @.$.",
"u.H.e.%.u.2.e.u.h.u.a.T.h.h.f.e.2.R W u.e.t.t.t.r.M N i t i i h ,.0.e.e.u.i.T.0.,.u.f.k.k.d.S.h.k.h.e.q.1.+.H F H j j 6 @.q.q.e.",
"i.f.e.#.w.,.,.-.q.f.#.T.T.!.q.-.:.x G e.t.q.<.B n h - - . . t l Y ,.1.4.4.e.p.@.,.2.e.e.4.w.n.e.u.e.e.,.;.+.d 8 , * $ $ E ,.1.4.",
"@.a.K.L.*.[ E E +.@.) *.S.*.J } } ` / @.%.} T b R ^ k k 3 6 w r E E T +.w.#.*.N.#.E T j H ^ ' ) / H E E +.( Z 8 O O < < X.) @.E ",
"w.p.a.u.u.e.y.} f f J b [ } ..u.u.t.t.t.9.@.0.e.s.T.T.T.y.1.0.e.e.u.f.V.0.u.p.h.h.s.w.f f b T b } %.w.u.p.d.s.i.p.A.t.t.t.u.u.@.",
"w.f.2.;.,.;.e.k > x T b T R K ,.e.8.8.:.V 7.,.<.i.e.e.u.| ;.,.q.e.4.e.y.:.-.,.i.R.k.0.> s b b T I $.w.;.;.;.2.f.w.R V <.8.q.e.T ",
"+.#.@.W T / N./ j j j K J H ^ E @.%.| b v } W T T / $.) ] W } E @.y.#.M.[ T P %.H.J.+.k j d k J k ] V.T T E #.#.} b b R @.%.%.J ",
"/./.T.N.A.S.t.D.u.u.r.w.u.u.J.Y.e.y.} [ b [ v h h %.D.t.D.u.u.y.K.h.s.h.p.w.W F.T.T.d.u.,.,.%.7.r.7./.^.K.a.h.u.u.u.0.1.r.| r.7.",
"g.g.f.@.V >.<.<.t.2.[ 0.,.,.;.2.i.w.b v v x u t u :.:.<.<.q.q.{ T.g.l.5.;.:.I #.i.i.e.4.,.,.r.;.,.4.g.k.f.a.e.e.2.2.1.;.7.;.>.2.",
"E ! 0.E z c ,.@.#.| / #.T P W 1.0.} j a a y # 2 y l z R @.0.@.K N.J.H.T b b f ^ } L T W E | O.Q 0.! E ! ! +.! ! Y U P I X.Q #.! "
};
