/* XPM */
static char *result[] = {
/* columns rows colors chars-per-pixel */
"64 64 196 2 ",
"   c #0B0E0D",
".  c #0E110E",
"X  c #14120D",
"o  c #1B150E",
"O  c #1D180E",
"+  c #1A1914",
"@  c #141513",
"#  c #23160E",
"$  c #28170F",
"%  c #241A0E",
"&  c #2B1B0E",
"*  c #331E0F",
"=  c #381F0F",
"-  c #231F17",
";  c #351B10",
":  c #3B1C10",
">  c #2D200D",
",  c #34230D",
"<  c #3B240E",
"1  c #3E2A0D",
"2  c #252016",
"3  c #2C2414",
"4  c #25221A",
"5  c #2C261B",
"6  c #2D291F",
"7  c #322314",
"8  c #3E2010",
"9  c #372811",
"0  c #392C19",
"q  c #282721",
"w  c #2C2A23",
"e  c #3A3832",
"r  c #431E11",
"t  c #4A1F11",
"y  c #42260F",
"u  c #44290E",
"i  c #4D2C0F",
"p  c #522F0F",
"a  c #49330A",
"s  c #55310E",
"d  c #59370D",
"f  c #573B0B",
"g  c #422310",
"h  c #4C2311",
"j  c #4A2D11",
"k  c #412B13",
"l  c #532312",
"z  c #5C2412",
"x  c #532A10",
"c  c #5B2B11",
"v  c #4B3211",
"b  c #413115",
"n  c #5D3110",
"m  c #573E15",
"M  c #653B0D",
"N  c #693B0F",
"B  c #733E0F",
"V  c #632613",
"C  c #6A2713",
"Z  c #642912",
"A  c #6C2913",
"S  c #732A14",
"D  c #7A2B14",
"F  c #633410",
"G  c #6D3411",
"H  c #6E3811",
"J  c #743113",
"K  c #753D10",
"L  c #7B3C11",
"P  c #7F3014",
"I  c #44382A",
"U  c #5F4410",
"Y  c #63410A",
"T  c #6D420D",
"R  c #74440D",
"E  c #704A09",
"W  c #7A4B0B",
"Q  c #7A420F",
"!  c #7F5309",
"~  c #634713",
"^  c #7C4D11",
"/  c #7D4517",
"(  c #56462A",
")  c #594526",
"_  c #6F4928",
"`  c #674721",
"'  c #755422",
"]  c #832D15",
"[  c #8C2F15",
"{  c #843214",
"}  c #8C3216",
"|  c #8B3B14",
" . c #943216",
".. c #9B3316",
"X. c #933D14",
"o. c #993C14",
"O. c #A33517",
"+. c #AB3617",
"@. c #A23A16",
"#. c #A93C16",
"$. c #AE3718",
"%. c #B43E17",
"&. c #B93E17",
"*. c #B13718",
"=. c #B63A18",
"-. c #B83918",
";. c #814B0C",
":. c #8E4E0E",
">. c #9A4F0F",
",. c #875608",
"<. c #8C540B",
"1. c #94530D",
"2. c #9D530F",
"3. c #975D09",
"4. c #844311",
"5. c #8C4810",
"6. c #8B4611",
"7. c #944413",
"8. c #9B4414",
"9. c #9C4A12",
"0. c #885613",
"q. c #9E5110",
"w. c #A4590D",
"e. c #AA5C0D",
"r. c #B35E0E",
"t. c #A44315",
"y. c #AD4216",
"u. c #A34C13",
"i. c #AE4B14",
"p. c #B44217",
"a. c #BC4317",
"s. c #B34D14",
"d. c #BE4916",
"f. c #A35311",
"g. c #AC5312",
"h. c #B55313",
"j. c #BC5314",
"k. c #B45A12",
"l. c #BC5C11",
"z. c #9F6009",
"x. c #96610B",
"c. c #926019",
"v. c #A36209",
"b. c #AC640A",
"n. c #B4600D",
"m. c #BC660C",
"M. c #B36B09",
"N. c #BD6A0B",
"B. c #BC7506",
"V. c #BC780C",
"C. c #A76714",
"Z. c #BF6010",
"A. c #BB6418",
"S. c #825B22",
"D. c #82612C",
"F. c #C04716",
"G. c #C14C16",
"H. c #C55315",
"J. c #C95715",
"K. c #C45A13",
"L. c #CA5C13",
"P. c #C3660E",
"I. c #C36B0C",
"U. c #CC6B0D",
"Y. c #D46D0E",
"T. c #D86F0D",
"R. c #CC7C06",
"E. c #C57309",
"W. c #CD730A",
"Q. c #CC790A",
"!. c #C67F07",
"~. c #D6720C",
"^. c #D9750B",
"/. c #D67A09",
"(. c #DD7B0A",
"). c #C46211",
"_. c #CE6312",
"`. c #D06611",
"'. c #D26810",
"]. c #E07E09",
"[. c #CA8007",
"{. c #DB8405",
"}. c #DC8B03",
"|. c #DE8309",
" X c #D68A03",
".X c #DF9202",
"XX c #E38506",
"oX c #E68A04",
"OX c #E98D03",
"+X c #E18108",
"@X c #E79002",
"#X c #EC9302",
"$X c #F29B01",
"%X c #F09602",
"&X c #F8A300",
"*X c None",
/* pixels */
"*X*X*X*X*X*X*X*X*X*X*X*X*X*X*X*X*X*X*X*X*X*X*X*X*X*Xt.c s.G.G.F.F.d.a.a.&.a.*X*X*X*X*X*X*X*X*X*X*X*X*X*X*X*X*X*X*X*X*X*X*X*X*X*X",
"*X*X*X*X*X*X*X*X*X*X*X*X*X*X*X*X*X*X*X*X*X*XH.H.H.j.c | H.G.G.G.G.d.d.a.a.a.&.a.a.=.*X*X*X*X*X*X*X*X*X*X*X*X*X*X*X*X*X*X*X*X*X*X",
"*X*X*X*X*X*X*X*X*X*X*X*X*X*X*X*X*X*X*X*XL.L.L.L.H.G j H.H.G.G.G.G.d.d.d.d.a.a.a.=.a.&.=.*X*X*X*X*X*X*X*X*X*X*X*X*X*X*X*X*X*X*X*X",
"*X*X*X*X*X*X*X*X*X*X*X*X*X*X*X*X*XL.L.L.L.L.L.L.u.& 7.J.H.H.H.H.G.G.G.d.d.a.a.a.a.&.&.=.-.-.-.*X*X*X*X*X*X*X*X*X*X*X*X*X*X*X*X*X",
"*X*X*X*X*X*X*X*X*X*X*X*X*X*X*X*X_._._._.L.L.L._.K 8 K.L.H.H.H.H.H.G.G.G.d.d.a.a.a.a.a.&.-.-.=.-.*X*X*X*X*X*X*X*X*X*X*X*X*X*X*X*X",
"*X*X*X*X*X*X*X*X*X*X*X*X*X*X_._._._._._.`.`.`._.j n L.L.L.L.J.H.H.G.G.G.d.d.F.a.p...D V l t t l z z *X*X*X*X*X*X*X*X*X*X*X*X*X*X",
"*X*X*X*X*X*X*X*X*X*X*X*X*X_.`.`.`.'.'.`.`.'._.).u K _.L.L.L.L.H.H.H.G.G.j.d.o.Z 7 $ : z D } } } ] D S *X*X*X*X*X*X*X*X*X*X*X*X*X",
"*X*X*X*X*X*X*X*X*X*X*X`.'.'.'.Y.'.Y.Y.Y.'.Y.Y.U.s K `._.L.L.L.J.J.H.H.j.X.h # : A o.=.a.a.-.-.-.-.-.-.-.-.*X*X*X*X*X*X*X*X*X*X*X",
"*X*X*X*X*X*X*X*X*X*XK ).Y.Y.Y.Y.T.T.Y.Y.Y.~.Y.Y.Q x `.`.`.L.).J.L.L.t.x $ x X.p.G.a.&.a.=.&.=.-.-.-.-.-.-.-.*X*X*X*X*X*X*X*X*X*X",
"*X*X*X*X*X*X*X*X*Xs o 1 2.Y.~.~.~.^.^.^.~.~.Y.T.n., g.`.`._.`._.H.L ; x 8.G.G.d.d.d.a.&.a.a.&.-.-.-.-.-.-.-.-.*X*X*X*X*X*X*X*X*X",
"*X*X*X*X*X*X*X*X'.P.:.< o M I.^.^.^.(.^.^.^.^.~.~.N j ).`.`.`.j.n u 7.J.J.j.G.G.d.d.d.a.&.=.&.=.-.-.-.-.-.-.-.-.*X*X*X*X*X*X*X*X",
"*X*X*X*X*X*X*X`.'.Y.~.U.W > , 1.(.(.(.(.(.(.(.^.^.N.k ` A.l.5.y F j.L.J.J.H.G.G.F.d.a.a.a.a.&.=.-.-.-.-.-.-.-.-.-.*X*X*X*X*X*X*X",
"*X*X*X*X*X*X*XY.Y.T.^.^.(.m.d O N Q.XX].].(.(.(.^.^.e.0 I 3 O Q _.L.L.L.H.H.G.G.G.d.d.a.&.&.&.-.-.-.-.-.-.-.-.-.-.*X*X*X*X*X*X*X",
"*X*X*X*X*X*X'.Y.~.~.^.^.(.].(.<.% 1 b.XXXX+X].(.(.(.~.s . . 7 l.`._.L.L.J.H.H.G.G.d.d.a.a.a.a.=.-.-.-.-.-.-.-.-.-.-.*X*X*X*X*X*X",
"*X*X*X*X*X'.Y.Y.~.^.(.(.(.|.XXXXB.1 % <.XXXXXX|.|.^.R o s , - / K.`.L.L.J.J.G.H.G.G.d.a.a.&.&.&.-.-.-.-.-.-.-.-.-.-.-.*X*X*X*X*X",
"*X*X*X*X*XY.Y.T.^.^.(.(.|.XXoXoXOX[.f O 0.{.XXXX/.T + T U.Z.k w _ k.L.L.J.H.G.G.G.d.d.a.a.a.&.&.-.-.-.-.-.-.-.-.-.-.-.*X*X*X*X*X",
"*X*X*X*X'.Y.Y.~.^.(.(.XXXXXXoXOXOX#X}.E 4 S.{.{.R 2 ^ /.^.~.P.N - 7 K h.J.J.J.H.G.G.d.a.a.&.&.&.=.&.-.-.-.-.-.-.-.-.-.-.*X*X*X*X",
"*X*X*X_.'.Y.Y.~.^.(.(.XXXXoXOX#X#X#X#X@X,.6 ' Y 6 0.(.(.^.~.Y.Y.>.k X & n 7.s.G.G.G.G.d.a.a.a.&.=.=.-.-.-.-.-.-.-.-.-.-.-.*X*X*X",
"*X*X*X`.'.Y.~.^.^.(.XX+XXXoX@X#X#X$X$X$X#XE . q c.+X+X(.^.^.Y.Y.'.K.6.u o X & h J | t.y.a.a.a.a.&.-.-.-.-.-.-.-.-.-.-.-.-.*X*X*X",
"*X*X*X_.'.Y.Y.^.(.(.].+XoXOX@X#X$X$X$X$X Xm 4 5 ` Q.+X(.(.~.~.Y.Y.`._.K.9.G g # X X o $ : r l z C D [ O.*.-.-.-.-.-.-.-.-.*X*X*X",
"*X*X_._.'.Y.~.(.].].+XoXOXOX#X%X$X&X&X.X~ ( V.3.3 U E.(.^.^.~.Y.`._._.L.L.L.G.i.X.J z 8 $ + X X . . @ o ; z [ +.-.-.-.-.-.-.*X*X",
"*X*X_.`.'.Y.m.w.;.;.<.v.E.{.#X%X%X&X.XY U [.@XoXv.3 b I.(.^.Y.Y.Y._._.L.K.J.L.H.H.G.j.a.%.@. .{ D A C z : # o ; A +.-.-.-.-.*X*X",
"*XL.`.`.k.N , & , 1 , > % 1 ! [.$X Xf 0 [.#X@XoXoXb.& 1 m.^.Y.Y.Y._._.L.J.H.J.G.G.G.F.d.a.a.a.&.&.&.-.-.*.O.D r o ; D *.-.-.-.*X",
"*X_.).4.* i 1.I.W./.R.E.z.Y 0 ( x.a 2 V.#X#X@XoXXXXXb.> , n.~.Y.`._._.L.L.J.H.H.G.G.d.d.a.a.a.&.&.-.-.-.-.-.-.*. .r o l +.-.-.*X",
"*XK.H > 5.U.T.~.^.(.(.+XXXoXR.D.e   U @X@XOXoXoXXX(.+Xb., , e.Y.Y._._.L.L.H.H.H.G.d.d.d.a.a.a.=.-.-.-.-.-.-.-.-.-.-.] ; : O.-.*X",
"*XJ 7 q.`.'.Y.~.^.(.(.].+XXXoXW @ @ 2 ,.oXoXXXXXXX(.(.(.n., & g.`._.).L.L.H.H.G.G.G.d.d.a.&.a.&.-.-.-.-.-.-.-.-.-.-.-...; : $.*X",
"p < u._.`.'.Y.Y.~.^.(.(.|.XXQ., > ^ ) 5 z.oXXX+X].(.(.~.^.r., & 9._.L.J.L.H.H.G.G.F.d.a.a.a.&.&.-.-.-.-.-.-.-.-.-.-.*.-...; z *.",
"= 9.L._._._.Y.Y.~.~.^.(.(.+X;.# b.oXQ.( 9 E.+X(.(.(.(.~.Y.Y.r.< & 9._.L.H.H.H.G.G.d.d.d.a.&.&.=.-.-.-.-.-.-.-.-.-.-.-.-.-.[ ; C ",
"i.J.L._._.`.`.Y.'.~.~.^.].N.> W +X+X+XC.4 R (.(.^.^.^.~.Y.Y.Y.k.1 # 7.J.J.H.G.G.d.d.d.a.a.a.&.&.-.-.-.-.-.-.-.-.-.-.-.-.-.-.D $ ",
"H.J.J.L.)._.`.`.'.T.~.~.~.d u W.|.(.(./.v > I.(.^.~.Y.Y.Y.`._._.h.1 % 7.H.H.G.G.d.d.d.&.&.&.&.&.-.-.-.-.-.-.-.-.-.-.-.-.-.-.-.A ",
"H.H.K.L.L.`.`.`.'.'.Y.~.:.% e.(.^.^.(.(.1.X ;.^.T.T.Y.Y.`.`._._.J.h.k $ 8.H.G.G.d.d.a.a.a.&.-.-.-.*.-.-.-.-.-.-.-.*.-.-.-.-.-.*.",
"H.H.J.J.L.L._._.`.'.'.m., R ~.^.^.^.^.^.I.> 1 U.Y.Y.Y.`._._._.L.L.J.s.g $ t.G.G.d.d.a.a.&.&.-.-.-.-.-.-.-.-.-.-.-.-.-.-.-.-.-.-.",
"H.H.H.J.L.L.L._._.`.P.p 1 U.'.~.Y.T.~.Y.Y.N o e.'.'.`._._._.L.L.L.K.J.s.< = t.G.d.a.a.a.&.=.=.&.-.-.-.-.-.-.-.-.-.-.-.-.-.-.-.-.",
"G.H.H.H.H.L.L.L._.`./ # q.'.'.'.Y.Y.Y.Y.Y.2.X B '.`.`._._.L.L.L.J.H.H.H.y.= = #.d.a.&.&.&.&.-.-.-.-.-.-.*.-.-.-.-.-.-.-.-.-.-.-.",
"G.G.G.H.H.L.L.L.L.g.& F _.'.`.'.'.'.Y.U.Y.l.& u _._._._.L.L.L.J.J.H.H.G.G.@.* y y.d.a.&.&.=.&.-.-.-.-.-.-.-.-.-.-.-.-.-.-.-.-.-.",
"G.G.H.H.H.H.J.J.L.n & h._._._._._.`._.`.`._.s % k._.L.).L.J.H.H.H.H.G.d.G.G.o.$ l $.a.a.&.-.-.-.-.-.-.-.-.-.-.-.-.-.-.-.-.-.-.-.",
"G.G.G.G.H.H.J.J.u.# Q L.L._._._._._._._._._.| X 9._.L.J.H.J.H.H.H.G.G.G.G.d.a.} # z &.=.-.-.-.-.-.-.-.-.-.-.-.-.-.-.-.-.-.-.-.-.",
"d.d.G.G.G.H.H.H.c ; j.L.L.K.L.L.L.L._.L._.L.q.o L L.J.J.H.H.H.H.G.G.d.d.d.d.a.a.{ o Z -.-.-.-.-.-.-.-.-.-.-.*.-.-.-.-.-.-.-.-.-.",
"*Xd.G.d.G.G.H.t.$ K J.H.J.J.L.L.J.L.L.L.J.L.i.# c H.J.H.H.H.G.G.G.G.F.d.d.a.a.a.&.S o S -.-.-.-.-.-.-.-.-.-.-.-.-.-.-.-.-.-.-.*X",
"*Xd.d.d.G.G.G.G $ s.H.H.J.J.J.H.J.J.L.H.J.J.h.& k H.H.H.H.G.G.G.G.d.d.a.a.a.a.&.&.-.V o ] -.-.-.-.-.-.-.-.-.-.-.-.-.-.-.-.-.-.*X",
"*Xd.d.d.d.G.a., z G.H.H.H.H.H.H.H.H.H.H.H.H.j.= & s.H.G.G.G.G.G.d.d.a.a.a.&.&.a.=.=.*.l # [ -.-.-.-.-.-.-.-.-.-.-.-.-.-.-.-.-.*X",
"*X&.a.d.a.F.o.# | G.G.G.H.G.G.H.H.H.H.H.G.H.H.h + t.G.G.F.G.d.d.d.a.a.a.a.a.&.=.&.-.-.$.t $  .-.-.-.-.-.-.-.-.-.-.-.-.-.-.-.-.*X",
"*X*Xa.a.a.d.J $ y.G.d.G.j.G.G.G.d.H.G.H.G.G.G.c X X.G.d.F.F.F.a.a.a.a.a.a.=.a.=.-.-.-.-.O.; ; O.-.-.-.-.-.-.-.-.-.-.*.-.-.-.*X*X",
"*X*Xa.&.a.a.h g a.d.d.G.F.G.G.G.H.d.d.G.G.G.G.J X { F.d.F.F.d.a.a.a.&.&.&.&.=.-.-.-.-.-.-...$ : +.-.*.-.-.-.-.-.-.-.-.-.-.-.*X*X",
"*X*X*Xa.a.%.; c F.a.d.F.d.d.d.d.F.d.d.d.G.d.G.} X S d.d.d.a.&.a.p.&.a.=.&.-.-.-.-.-.-.-.-.-. .# t $.-.-.-.-.-.-.-.-.-.-.-.*X*X*X",
"*X*X*X&.&.#.$ S a.a.a.a.a.a.d.d.d.a.d.d.d.d.d.o.o Z d.a.a.&.a.a.&.&.&.=.=.-.-.-.-.-.-.-.-.-.-.D o z *.-.-.-.-.-.-.-.-.-.-.*X*X*X",
"*X*X*X*X&.@.% { a.a.&.a.a.a.a.a.a.a.d.a.a.a.a.#.$ h a.a.&.&.&.&.&.-.&.-.-.-.-.-.-.-.-.-.-.-.-.-.S X C -.-.-.-.-.-.-.-.-.*X*X*X*X",
"*X*X*X*X&.O.$ { &.a.&.a.a.&.a.a.a.a.p.a.a.a.a.&.; ; %.a.&.&.&.&.-.&.-.-.-.-.-.-.-.-.-.-.-.-.-.-.-.V X D -.-.-.-.-.-.-.-.*X*X*X*X",
"*X*X*X*X*XO.$ { &.&.a.&.&.a.a.=.&.a.&.&.a.&.a.&.l $ #.=.-.-.-.-.-.-.-.-.-.-.-.-.-.-.-.-.-.-.-.-.-.*.t # ] -.-.-.-.-.-.*X*X*X*X*X",
"*X*X*X*X*X$.: S &.-.&.=.=.&.=.a.&.&.&.&.&.&.&.&.C o ..&.-.-.-.-.-.-.-.*.-.-.-.-.-.-.-.-.-.-.*.-.-.-.+.r $  .-.-.-.-.-.*X*X*X*X*X",
"*X*X*X*X*X*Xr z -.-.-.-.&.=.&.&.-.&.-.-.&.&.-.&.[ X ] &.-.-.-.-.-.-.-.-.-.-.-.-.-.-.-.-.-.-.-.-.-.-.-...; ; O.-.-.-.*X*X*X*X*X*X",
"*X*X*X*X*X*X*X: *.-.-.-.-.-.-.-.-.-.-.-.-.-.-.-...+ V -.-.-.-.-.-.-.-.-.-.-.-.-.-.-.-.-.-.-.-.-.-.-.-.-. .$ t +.-.*X*X*X*X*X*X*X",
"*X*X*X*X*X*X*X$  .-.-.-.-.-.-.-.-.-.-.-.-.-.-.-.*.; r *.-.-.-.-.-.-.-.-.-.-.-.-.-.-.-.-.-.-.-.-.-.-.-.-.-.[ # z -.*X*X*X*X*X*X*X",
"*X*X*X*X*X*X*X*X[ -.-.-.-.-.-.-.-.-.-.-.-.-.-.-.-.l $ +.-.-.-.-.-.-.-.-.-.-.-.-.-.-.-.-.*.-.-.-.-.-.-.-.-.-.S # *X*X*X*X*X*X*X*X",
"*X*X*X*X*X*X*X*X*X-.-.-.-.-.-.-.-.-.-.-.-.-.-.-.-.D o [ -.-.-.-.-.-.-.-.-.-.-.-.-.-.-.-.-.-.-.-.-.-.-.-.-.-.*.*X*X*X*X*X*X*X*X*X",
"*X*X*X*X*X*X*X*X*X*X-.-.-.-.-.-.-.-.-.*.-.-.-.-.-...o V -.-.-.-.-.-.-.-.-.-.-.-.-.-.-.-.-.-.-.-.-.-.-.-.-.-.*X*X*X*X*X*X*X*X*X*X",
"*X*X*X*X*X*X*X*X*X*X*X*X-.-.-.-.-.-.-.-.-.-.-.-.-.*.; ; *.-.-.-.-.-.-.-.-.-.-.-.-.-.-.-.-.-.-.-.-.-.-.-.-.*X*X*X*X*X*X*X*X*X*X*X",
"*X*X*X*X*X*X*X*X*X*X*X*X*X-.-.-.-.-.-.-.-.-.-.-.-.-.C o  .-.-.-.-.-.-.-.-.-.-.-.-.-.-.-.-.-.-.-.-.-.-.*X*X*X*X*X*X*X*X*X*X*X*X*X",
"*X*X*X*X*X*X*X*X*X*X*X*X*X*X-.-.-.-.-.-.-.-.-.-.-.-. .X z -.-.-.-.-.*.-.-.-.-.-.-.-.-.-.-.-.-.-.-.-.*X*X*X*X*X*X*X*X*X*X*X*X*X*X",
"*X*X*X*X*X*X*X*X*X*X*X*X*X*X*X*X-.-.-.-.-.-.-.-.-.-.*.: $ +.-.-.-.-.-.-.-.-.-.-.-.-.-.-.-.-.-.-.*X*X*X*X*X*X*X*X*X*X*X*X*X*X*X*X",
"*X*X*X*X*X*X*X*X*X*X*X*X*X*X*X*X*X*X-.-.-.-.-.-.-.-.-.D . C -.-.-.-.-.-.-.-.-.-.-.-.-.-.-.-.*X*X*X*X*X*X*X*X*X*X*X*X*X*X*X*X*X*X",
"*X*X*X*X*X*X*X*X*X*X*X*X*X*X*X*X*X*X*X*X-.-.-.-.-.-.-.$.; $ ..-.-.-.-.-.-.-.-.-.-.-.-.-.*X*X*X*X*X*X*X*X*X*X*X*X*X*X*X*X*X*X*X*X",
"*X*X*X*X*X*X*X*X*X*X*X*X*X*X*X*X*X*X*X*X*X*X*X-.-.-.-.-.] o ; O.-.-.-.-.-.-.-.-.-.*X*X*X*X*X*X*X*X*X*X*X*X*X*X*X*X*X*X*X*X*X*X*X",
"*X*X*X*X*X*X*X*X*X*X*X*X*X*X*X*X*X*X*X*X*X*X*X*X*X*X*X-.-.t . r ..-.-.-.-.*X*X*X*X*X*X*X*X*X*X*X*X*X*X*X*X*X*X*X*X*X*X*X*X*X*X*X"
};
