/* XPM */
static char *result[] = {
/* columns rows colors chars-per-pixel */
"64 64 131 2 ",
"   c #FA5E0F",
".  c #F45617",
"X  c #FA5E10",
"o  c #FA7C0E",
"O  c #F96C15",
"+  c #F56319",
"@  c #F97313",
"#  c #F97D14",
"$  c #F5711B",
"%  c #F9771B",
"&  c #F77C1A",
"*  c #F67220",
"=  c #FA850C",
"-  c #FB8C0D",
";  c #FB930D",
":  c #FB9B0D",
">  c #F78516",
",  c #F98212",
"<  c #F98A14",
"1  c #F68119",
"2  c #F8851A",
"3  c #F98C1A",
"4  c #FA9315",
"5  c #FA9C13",
"6  c #F9941B",
"7  c #FA9C1A",
"8  c #FBA30D",
"9  c #FBAB0D",
"0  c #FCB30D",
"q  c #FCBC0D",
"w  c #FBA413",
"e  c #FBAB14",
"r  c #FBA31C",
"t  c #FBAC1C",
"y  c #FCB313",
"u  c #FCBC14",
"i  c #FCB31B",
"p  c #FCBC1B",
"a  c #F78123",
"s  c #F78E20",
"d  c #FA8E26",
"f  c #F8852E",
"g  c #FA9624",
"h  c #FA9B24",
"j  c #FA9B2C",
"k  c #FA9531",
"l  c #F99D32",
"z  c #FAA124",
"x  c #FBAA22",
"c  c #FBA32B",
"v  c #FAAC2B",
"b  c #FBB423",
"n  c #FCBD22",
"m  c #FBB42B",
"M  c #FCB92B",
"N  c #F9A130",
"B  c #F9AF32",
"V  c #FBBB30",
"C  c #FDC705",
"Z  c #FCC40C",
"A  c #FDCE0C",
"S  c #FEDE05",
"D  c #FED40A",
"F  c #FDDB0A",
"G  c #FDC313",
"H  c #FCCB13",
"J  c #FCC21B",
"K  c #FDCC1C",
"L  c #FDD414",
"P  c #FEDB14",
"I  c #FDD41B",
"U  c #FEDB1B",
"Y  c #FEE305",
"T  c #FFEC03",
"R  c #FEE40A",
"E  c #FEEA0A",
"W  c #FFF201",
"Q  c #FFF10A",
"!  c #FFE411",
"~  c #FEE41C",
"^  c #FEED1C",
"/  c #FEF41A",
"(  c #FCC225",
")  c #FDCA25",
"_  c #FCC52C",
"`  c #FDCB2C",
"'  c #FDD024",
"]  c #FDDB22",
"[  c #FDD32B",
"{  c #FDDC2C",
"}  c #FDCD33",
"|  c #FDCA3C",
" . c #FEE225",
".. c #FEEC23",
"X. c #FEE52B",
"o. c #FEEC2B",
"O. c #FEF323",
"+. c #FEF32B",
"@. c #FDE230",
"#. c #FFEF31",
"$. c #FFF535",
"%. c #FFF53B",
"&. c #FDD547",
"*. c #FEE741",
"=. c #FEE24A",
"-. c #FFF543",
";. c #FFF64C",
":. c #FFF653",
">. c #FFF75C",
",. c #FFF763",
"<. c #FFF769",
"1. c #FFF86E",
"2. c #FFF873",
"3. c #FFF87C",
"4. c #FFF982",
"5. c #FFF98C",
"6. c #FFFA94",
"7. c #FFFA9C",
"8. c #FFFAA5",
"9. c #FFFBAB",
"0. c #FFFBB3",
"q. c #FFFCBB",
"w. c #FFFCC3",
"e. c #FFFDCD",
"r. c #FFFDD3",
"t. c #FFFDDC",
"y. c #FFFEE3",
"u. c #FFFEEC",
"i. c #FFFEF4",
"p. c #FFFFFC",
"a. c None",
/* pixels */
"a.a.a.a.a.a.a.a.a.a.a.a.a.a.a.a.a.a.a.a.a.a.a.a.a.a.a.a.a.a.a.a.a.a.a.a.a.a.a.a.a.a.a.a.a.a.a.a.a.a.a.a.a.a.a.a.a.a.a.a.a.a.a.a.",
"a.a.a.a.a.a.a.a.a.a.a.a.a.a.a.a.a.a.a.a.a.a.a.a.a.a.a.a.a.a.a.a.a.a.a.a.a.a.a.a.a.a.a.a.a.a.a.a.a.a.a.a.a.a.a.a.a.a.a.a.a.a.a.a.",
"a.a.a.a.a.a.a.a.a.a.a.a.a.a.a.a.a.a.a.a.a.a.a.a.a.a.a.a.a.a.a.a.a.a.a.a.a.a.a.a.a.a.a.a.a.a.a.a.a.a.a.a.a.a.a.a.a.a.a.a.a.a.a.a.",
"a.a.a.a.a.a.a.a.a.a.a.a.a.a.a.a.a.a.a.a.a.a.a.a.a.a.a.a.a.a.a.a.a.a.a.a.a.a.a.a.a.a.a.a.a.a.a.a.a.a.a.a.a.a.a.a.a.a.a.a.a.a.a.a.",
"a.a.a.a.a.a.a.a.a.a.a.a.a.a.a.a.a.a.a.a.a.a.a.a.a.a.a.a.a.a.a.a.a.a.a.a.a.a.a.a.a.a.a.a.a.a.a.a.a.a.a.a.a.a.a.a.a.a.a.a.a.a.a.a.",
"a.a.a.a.a.a.a.a.a.a.a.a.a.a.a.a.a.a.a.a.a.a.a.a.a.a.a.a.a.a.a.a.a.a.a.a.a.a.a.a.a.a.a.a.a.a.a.a.a.a.a.a.a.a.a.a.a.a.a.a.a.a.a.a.",
"a.a.a.a.a.a.a.a.a.a.a.a.a.a.a.a.a.a.a.a.a.a.a.a.a.a.a.a.a.a.a.a.a.a.a.a.a.a.a.a.a.a.a.a.a.a.a.a.a.a.a.a.a.a.a.a.a.a.a.a.a.a.a.a.",
"a.a.a.a.a.a.a.a.a.a.a.a.a.a.a.a.a.a.a.a.a.a.a.a.a.a.a.a.a.a.a.a.a.a.a.a.a.a.a.a.a.a.a.a.a.a.a.a.a.a.a.a.a.a.a.a.a.a.a.a.a.a.a.a.",
"a.a.a.a.a.a.a.a.a.a.a.a.a.a.a.a.a.a.a.a.a.a.a.a.a.a.a.a.a.a.a.a.a.a.a.a.a.a.a.a.a.a.a.a.a.a.a.a.a.a.a.a.a.a.a.a.a.a.a.a.a.a.a.a.",
"a.a.a.a.a.a.a.a.a.a.a.a.a.a.a.a.a.a.a.a.a.a.a.a.a.a.a.a.a.a.a.a.a.a.a.a.a.a.a.a.a.a.a.a.a.a.a.a.a.a.a.a.a.a.a.a.a.a.a.a.a.a.a.a.",
"a.a.a.a.a.a.a.a.a.a.a.a.a.a.a.a.a.a.a.a.a.a.a.a.a.a.a.a.a.a.a.a.a.a.a.a.a.a.a.a.a.a.a.a.a.a.a.a.a.a.a.a.a.a.a.a.a.a.a.a.a.a.a.a.",
"a.a.a.a.a.a.a.a.a.a.a.a.a.a.a.a.a.a.a.a.a.a.a.a.a.a.a.T a.a.a.T a.a.a.a.a.a.a.a.a.a.a.a.a.a.a.a.a.a.a.a.a.a.a.a.a.a.a.a.a.a.a.a.",
"a.a.a.a.a.a.a.a.a.a.a.a.a.a.a.a.a.a.a.a.a.a.a.T a.T a.Y T R E W R T a.Y T a.a.a.a.a.a.a.a.a.a.a.a.a.a.a.a.a.a.a.a.a.a.a.a.a.a.a.",
"a.a.a.a.a.a.a.a.a.a.a.a.a.a.a.a.a.a.a.a.a.a.a.T Y Y T F Y q 0 F : S H Z Z P a.Y a.a.a.a.a.a.a.a.a.a.a.a.a.a.a.a.a.a.a.a.a.a.a.a.",
"a.a.a.a.a.a.a.a.a.a.a.a.a.a.a.a.a.a.a.W a.T a.R R Z D : w 8 o S e 8 u 5 0 y 0 A T a.a.a.a.a.a.a.a.a.a.a.a.a.a.a.a.a.a.a.a.a.a.a.",
"a.a.a.a.a.a.a.a.a.a.a.a.a.a.a.a.a.a.a.a.T T Y A 0 y : = 4 u | ..: Z 2 D ] 0 : y C Z R a.a.a.a.a.a.a.a.a.a.a.a.a.a.a.a.a.a.a.a.a.",
"a.a.a.a.a.a.a.a.a.a.a.a.a.a.a.a.a.a.a.a.R S R i ; y c : % 4 + L u R # u j 9 b ..w w T Y a.a.a.a.a.a.a.a.a.a.a.a.a.a.a.a.a.a.a.a.",
"a.a.a.a.a.a.a.a.a.a.a.a.a.a.a.a.a.a.Y Y F 0 w ~ B ; h - @ H b J | p 4 ( e o d : r G w 0 a.a.a.a.a.a.a.a.a.a.a.a.a.a.a.a.a.a.a.a.",
"a.a.a.a.a.a.a.a.a.a.a.a.a.a.a.a.a.T Y A A 9 i L h 4 e v q ] G / / ..H J A m K # z y u , U R a.a.a.a.a.a.a.a.a.a.a.a.a.a.a.a.a.a.",
"a.a.a.a.a.a.a.a.a.a.a.a.a.a.a.a.a.S T 9 - U - 9 9 m Z ..+.%.%.-.-.-.%.%.+.~ G M R < r F e y T a.a.a.a.a.a.a.a.a.a.a.a.a.a.a.a.a.",
"a.a.a.a.a.a.a.a.a.a.a.a.a.a.a.W T R G 0 t # p m { ..$.-.;.:.>.>.,.>.>.:.;.-.$...J = b 7 p 9 u a.a.a.a.a.a.a.a.a.a.a.a.a.a.a.a.a.",
"a.a.a.a.a.a.a.a.a.a.a.a.a.a.W Y Y F : i 7 - w J o.%.;.>.<.2.3.4.4.4.3.2.,.>.;.%.o.J 7 O z y e F a.a.a.a.a.a.a.a.a.a.a.a.a.a.a.a.",
"a.a.a.a.a.a.a.a.a.a.a.a.a.a.a.Y S y 9 w @ M I o.-.:.,.3.5.6.7.8.8.8.7.6.4.3.,.:.-...Z n c b 0 8 R a.a.a.a.a.a.a.a.a.a.a.a.a.a.a.",
"a.a.a.a.a.a.a.a.a.a.a.a.a.a.a.a.H y r 6 : ` +.%.:.<.4.6.8.0.q.w.w.w.q.0.8.6.4.<.:.-.X.( 8 , H t a.a.a.a.a.a.a.a.a.a.a.a.a.a.a.a.",
"a.a.a.a.a.a.a.a.a.a.a.a.a.a.Y R 0 ; w w V P %.:.1.4.7.9.w.e.r.t.t.r.r.e.q.9.7.4.,.:.%.P ` k t ; y Y a.a.a.a.a.a.a.a.a.a.a.a.a.a.",
"a.a.a.a.a.a.a.a.a.a.a.a.a.W T A 9 K < 9 J $.-.,.3.7.0.w.r.t.y.u.u.u.u.t.r.w.0.6.3.,.-.%.I ; p e 7 a.a.a.a.a.a.a.a.a.a.a.a.a.a.a.",
"a.a.a.a.a.a.a.a.a.a.a.a.a.a.a.Y G q r x ] %.:.2.6.9.w.r.y.u.i.i.i.i.u.u.y.r.w.9.5.2.:.$.L z 4 Z H a.a.a.a.a.a.a.a.a.a.a.a.a.a.a.",
"a.a.a.a.a.a.a.a.a.a.a.a.a.a.a.y ; M   ( O.-.,.3.7.q.r.y.u.i.p.p.p.p.i.i.u.y.r.0.7.4.>.-.X...# t # a.a.a.a.a.a.a.a.a.a.a.a.a.a.a.",
"a.a.a.a.a.a.a.a.a.a.a.a.a.T T F D y 0 J $.;.1.5.9.w.t.u.i.i.p.p.p.p.p.i.i.u.t.w.8.5.,.;.$.p @ ( 3 Z a.a.a.a.a.a.a.a.a.a.a.a.a.a.",
"a.a.a.a.a.a.a.a.a.a.a.a.a.Y R y = | 9 &.$.:.2.6.0.r.y.u.i.p.p.p.p.p.p.p.i.u.t.e.0.5.1.:.$.@.p z i y a.a.a.a.a.a.a.a.a.a.a.a.a.a.",
"a.a.a.a.a.a.a.a.a.a.a.a.a.a.a.5 : 7 5 ] $.:.2.6.0.r.y.i.p.p.p.p.p.p.p.p.i.i.y.e.0.6.2.:.$.` = # 3 p a.a.a.a.a.a.a.a.a.a.a.a.a.a.",
"a.a.a.a.a.a.a.a.a.a.a.a.a.a.a.y 0 &.y | %.:.2.6.0.r.y.u.i.p.p.p.p.p.p.p.p.u.y.e.0.6.2.:.$.[ z z y a.a.a.a.a.a.a.a.a.a.a.a.a.a.a.",
"a.a.a.a.a.a.a.a.a.a.a.a.a.a.R G = h 8 ] $.;.2.5.9.e.y.u.i.p.p.p.p.p.p.p.i.u.y.e.9.6.<.;.$.K 6 d 4 a.a.a.a.a.a.a.a.a.a.a.a.a.a.a.",
"a.a.a.a.a.a.a.a.a.a.a.a.a.W W D ; x 4 p $.;.<.5.9.w.t.u.i.p.p.p.p.p.p.i.i.y.r.w.9.4.,.;.%._ y H > Z a.a.a.a.a.a.a.a.a.a.a.a.a.a.",
"a.a.a.a.a.a.a.a.a.a.a.a.a.a.a.H t V 5 q o.-.>.4.7.q.r.t.u.i.i.p.p.p.i.i.u.y.e.0.7.3.>.%...{ 3 5 1 a.a.a.a.a.a.a.a.a.a.a.a.a.a.a.",
"a.a.a.a.a.a.a.a.a.a.a.a.a.a.a.R : 5 @ - ) %.:.1.5.8.q.r.y.y.i.i.i.i.u.u.t.r.q.9.5.<.:.%.*.4 < J K a.a.a.a.a.a.a.a.a.a.a.a.a.a.a.",
"a.a.a.a.a.a.a.a.a.a.a.a.a.a.a.a.y 9 |  .u o.-.,.3.7.9.w.e.t.y.y.y.y.y.t.e.q.9.6.3.>.-.o./ k B 2 w a.a.a.a.a.a.a.a.a.a.a.a.a.a.a.",
"a.a.a.a.a.a.a.a.a.a.a.a.a.a.Y a.u I < , e  .$.;.,.3.6.9.q.w.e.r.r.r.e.e.q.9.6.3.,.;.$.K 7 6 a.a.a.a.a.a.a.a.a.a.a.a.a.a.a.a.a.a.",
"a.a.a.a.a.a.a.a.a.a.a.a.a.a.a.a.a.5 ; e r t ] %.:.,.3.5.8.9.0.q.q.q.0.9.7.5.3.,.;.%. .] 7 g 4 w a.a.a.a.a.a.a.a.a.a.a.a.a.a.a.a.",
"a.a.a.a.a.a.a.a.a.a.a.a.a.a.a.a.R y G  .j 4 I @.%.;.>.2.4.5.6.7.8.7.6.5.4.2.>.;.%.o.u # l a.6 a.a.a.a.a.a.a.a.a.a.a.a.a.a.a.a.a.",
"a.a.a.a.a.a.a.a.a.a.a.a.a.a.a.a.a.Q i % 7 z p K @.%.-.>.,.1.3.3.3.3.2.<.,.:.-.%.^ p _ 7 h + a.a.a.a.a.a.a.a.a.a.a.a.a.a.a.a.a.a.",
"a.a.a.a.a.a.a.a.a.a.a.a.a.a.a.a.a.a.a.9 4 b 7 4 _  .o.%.-.;.:.>.>.:.:.:.-.%.o.{ ( > g ( 1 5 a.a.a.a.a.a.a.a.a.a.a.a.a.a.a.a.a.a.",
"a.a.a.a.a.a.a.a.a.a.a.a.a.a.a.a.a.a.W a.y 4 5 z y w [ ` o.$.$.%.%.%.%.$.X.+.b w l z : . J a.a.a.a.a.a.a.a.a.a.a.a.a.a.a.a.a.a.a.",
"a.a.a.a.a.a.a.a.a.a.a.a.a.a.a.a.a.a.a.R a.w t ) ` > ' 9 H _  .} ] } p J w 5 l > q M 3 a.a.a.a.a.a.a.a.a.a.a.a.a.a.a.a.a.a.a.a.a.",
"a.a.a.a.a.a.a.a.a.a.a.a.a.a.a.a.a.a.a.a.a.L a.t 3 i v x % @ 4 m w ( < 4 g z U m > 6 a.a.a.a.a.a.a.a.a.a.a.a.a.a.a.a.a.a.a.a.a.a.",
"a.a.a.a.a.a.a.a.a.a.a.a.a.a.a.a.a.a.a.a.a.a.a.a.3 u & 7 v v N g w f > j a.$ w v a.a.a.a.a.a.a.a.a.a.a.a.a.a.a.a.a.a.a.a.a.a.a.a.",
"a.a.a.a.a.a.a.a.a.a.a.a.a.a.a.a.a.a.a.a.a.a.a.a.a.a.w a.3 5 & w & 7 $ 6 p a 7 a.a.a.a.a.a.a.a.a.a.a.a.a.a.a.a.a.a.a.a.a.a.a.a.a.",
"a.a.a.a.a.a.a.a.a.a.a.a.a.a.a.a.a.a.a.a.a.a.a.a.a.a.a.a.a.8 a.& a.a.a.x a.a.a.a.a.a.a.a.a.a.a.a.a.a.a.a.a.a.a.a.a.a.a.a.a.a.a.a.",
"a.a.a.a.a.a.a.a.a.a.a.a.a.a.a.a.a.a.a.a.a.a.a.a.a.a.a.a.a.a.a.a.a.a.a.a.a.a.a.a.a.a.a.a.a.a.a.a.a.a.a.a.a.a.a.a.a.a.a.a.a.a.a.a.",
"a.a.a.a.a.a.a.a.a.a.a.a.a.a.a.a.a.a.a.a.a.a.a.a.a.a.a.a.a.a.a.a.a.a.a.a.a.a.a.a.a.a.a.a.a.a.a.a.a.a.a.a.a.a.a.a.a.a.a.a.a.a.a.a.",
"a.a.a.a.a.a.a.a.a.a.a.a.a.a.a.a.a.a.a.a.a.a.a.a.a.a.a.a.a.a.a.a.a.a.a.a.a.a.a.a.a.a.a.a.a.a.a.a.a.a.a.a.a.a.a.a.a.a.a.a.a.a.a.a.",
"a.a.a.a.a.a.a.a.a.a.a.a.a.a.a.a.a.a.a.a.a.a.a.a.a.a.a.a.a.a.a.a.a.a.a.a.a.a.a.a.a.a.a.a.a.a.a.a.a.a.a.a.a.a.a.a.a.a.a.a.a.a.a.a.",
"a.a.a.a.a.a.a.a.a.a.a.a.a.a.a.a.a.a.a.a.a.a.a.a.a.a.a.a.a.a.a.a.a.a.a.a.a.a.a.a.a.a.a.a.a.a.a.a.a.a.a.a.a.a.a.a.a.a.a.a.a.a.a.a.",
"a.a.a.a.a.a.a.a.a.a.a.a.a.a.a.a.a.a.a.a.a.a.a.a.a.a.a.a.a.a.a.a.a.a.a.a.a.a.a.a.a.a.a.a.a.a.a.a.a.a.a.a.a.a.a.a.a.a.a.a.a.a.a.a.",
"a.a.a.a.a.a.a.a.a.a.a.a.a.a.a.a.a.a.a.a.a.a.a.a.a.a.a.a.a.a.a.a.a.a.a.a.a.a.a.a.a.a.a.a.a.a.a.a.a.a.a.a.a.a.a.a.a.a.a.a.a.a.a.a.",
"a.a.a.a.a.a.a.a.a.a.a.a.a.a.a.a.a.a.a.a.a.a.a.a.a.a.a.a.a.a.a.a.a.a.a.a.a.a.a.a.a.a.a.a.a.a.a.a.a.a.a.a.a.a.a.a.a.a.a.a.a.a.a.a.",
"a.a.a.a.a.a.a.a.a.a.a.a.a.a.a.a.a.a.a.a.a.a.a.a.a.a.a.a.a.a.a.a.a.a.a.a.a.a.a.a.a.a.a.a.a.a.a.a.a.a.a.a.a.a.a.a.a.a.a.a.a.a.a.a.",
"a.a.a.a.a.a.a.a.a.a.a.a.a.a.a.a.a.a.a.a.a.a.a.a.a.a.a.a.a.a.a.a.a.a.a.a.a.a.a.a.a.a.a.a.a.a.a.a.a.a.a.a.a.a.a.a.a.a.a.a.a.a.a.a.",
"a.a.a.a.a.a.a.a.a.a.a.a.a.a.a.a.a.a.a.a.a.a.a.a.a.a.a.a.a.a.a.a.a.a.a.a.a.a.a.a.a.a.a.a.a.a.a.a.a.a.a.a.a.a.a.a.a.a.a.a.a.a.a.a.",
"a.a.a.a.a.a.a.a.a.a.a.a.a.a.a.a.a.a.a.a.a.a.a.a.a.a.a.a.a.a.a.a.a.a.a.a.a.a.a.a.a.a.a.a.a.a.a.a.a.a.a.a.a.a.a.a.a.a.a.a.a.a.a.a.",
"a.a.a.a.a.a.a.a.a.a.a.a.a.a.a.a.a.a.a.a.a.a.a.a.a.a.a.a.a.a.a.a.a.a.a.a.a.a.a.a.a.a.a.a.a.a.a.a.a.a.a.a.a.a.a.a.a.a.a.a.a.a.a.a.",
"a.a.a.a.a.a.a.a.a.a.a.a.a.a.a.a.a.a.a.a.a.a.a.a.a.a.a.a.a.a.a.a.a.a.a.a.a.a.a.a.a.a.a.a.a.a.a.a.a.a.a.a.a.a.a.a.a.a.a.a.a.a.a.a.",
"a.a.a.a.a.a.a.a.a.a.a.a.a.a.a.a.a.a.a.a.a.a.a.a.a.a.a.a.a.a.a.a.a.a.a.a.a.a.a.a.a.a.a.a.a.a.a.a.a.a.a.a.a.a.a.a.a.a.a.a.a.a.a.a.",
"a.a.a.a.a.a.a.a.a.a.a.a.a.a.a.a.a.a.a.a.a.a.a.a.a.a.a.a.a.a.a.a.a.a.a.a.a.a.a.a.a.a.a.a.a.a.a.a.a.a.a.a.a.a.a.a.a.a.a.a.a.a.a.a."
};
