/* XPM */
static char *result[] = {
/* columns rows colors chars-per-pixel */
"64 64 162 2 ",
"   c #4D0A0A",
".  c #5B0606",
"X  c #5C0708",
"o  c #530C0C",
"O  c #5C0B0B",
"+  c #4B1313",
"@  c #531010",
"#  c #591111",
"$  c #650303",
"%  c #6C0202",
"&  c #640A0A",
"*  c #6C0B0B",
"=  c #720101",
"-  c #730B0B",
";  c #651515",
":  c #6F1313",
">  c #631B1B",
",  c #721414",
"<  c #781616",
"1  c #751817",
"2  c #771C1C",
"3  c #791B1B",
"4  c #5E2626",
"5  c #5F2828",
"6  c #593939",
"7  c #662222",
"8  c #662C2C",
"9  c #6D2E2E",
"0  c #742524",
"q  c #7A2424",
"w  c #752B2B",
"e  c #7E2C2C",
"r  c #7D302F",
"t  c #613636",
"y  c #6B3434",
"u  c #673B3B",
"i  c #6C3B3B",
"p  c #733535",
"a  c #793433",
"s  c #7D3837",
"d  c #743A3A",
"f  c #7B3C3B",
"g  c #4E4E4E",
"h  c #5C4343",
"j  c #555353",
"k  c #5A5656",
"l  c #5D5C5C",
"z  c #664343",
"x  c #6E4847",
"c  c #694A4A",
"v  c #754343",
"b  c #7A4242",
"n  c #7E4847",
"m  c #744A4A",
"M  c #7A4D4D",
"N  c #665454",
"B  c #6D5353",
"V  c #645D5D",
"C  c #6A5D5D",
"Z  c #735454",
"A  c #7D5050",
"S  c #755E5E",
"D  c #7A5C5C",
"F  c #646363",
"G  c #6B6464",
"H  c #6C6B6B",
"J  c #746363",
"K  c #7C6666",
"L  c #726D6D",
"P  c #7D6C6C",
"I  c #747373",
"U  c #797777",
"Y  c #777878",
"T  c #7C7B7B",
"R  c #803433",
"E  c #823E3D",
"W  c #84403F",
"Q  c #834141",
"!  c #894544",
"~  c #824D4D",
"^  c #8A4C4B",
"/  c #845655",
"(  c #8A5353",
")  c #845B5B",
"_  c #8F5D5C",
"`  c #905655",
"'  c #915857",
"]  c #935D5C",
"[  c #89605F",
"{  c #8C6463",
"}  c #8D6967",
"|  c #806A6A",
" . c #906664",
".. c #956C6B",
"X. c #86706F",
"o. c #96706F",
"O. c #9B706F",
"+. c #837373",
"@. c #8B7474",
"#. c #817E7E",
"$. c #937373",
"%. c #9E7574",
"&. c #957877",
"*. c #917878",
"=. c #9D7B7A",
"-. c #A27C7B",
";. c #A0807F",
":. c #848383",
">. c #898686",
",. c #888887",
"<. c #8C8B8B",
"1. c #918585",
"2. c #9C8583",
"3. c #928E8E",
"4. c #9F8988",
"5. c #949494",
"6. c #999696",
"7. c #9C9B9A",
"8. c #A48382",
"9. c #A78887",
"0. c #AA8F8E",
"q. c #A69291",
"w. c #AD9493",
"e. c #AA9896",
"r. c #A29D9C",
"t. c #AB9D9B",
"y. c #B09796",
"u. c #B19E9D",
"i. c #A8A09F",
"p. c #B3A09F",
"a. c #A3A3A2",
"s. c #ABA2A1",
"d. c #A8A8A7",
"f. c #A7A9A8",
"g. c #ABAAAA",
"h. c #B7A7A5",
"j. c #B8A6A5",
"k. c #B9A8A7",
"l. c #B2ABAA",
"z. c #BCAEAD",
"x. c #B1B1B0",
"c. c #BDB4B2",
"v. c #BDBCBC",
"b. c #C1B8B7",
"n. c #C2BBBA",
"m. c #C4C0BF",
"M. c #C7C4C2",
"N. c #C9C3C2",
"B. c #CDC9C7",
"V. c #CECBCA",
"C. c #D1CDCC",
"Z. c #D2D0CF",
"A. c #D5D5D4",
"S. c #D7D8D7",
"D. c #D8D8D7",
"F. c #DCDDDC",
"G. c #E0DFDE",
"H. c #DFE0DF",
"J. c #E1E0DF",
"K. c #DFE1E0",
"L. c #E2E2E1",
"P. c None",
/* pixels */
"P.P.P.P.P.P.P.P.P.P.P.P.P.P.P.P.P.P.P.P.P.P.P.P.P.@ X & $ $ % $ % $ $ & & X @ P.P.P.P.P.P.P.P.P.P.P.P.P.P.P.P.P.P.P.P.P.P.P.P.P.",
"P.P.P.P.P.P.P.P.P.P.P.P.P.P.P.P.P.P.P.P.P.O $ % % - < q R W ^ ^ ^ ^ E e 2 , - = % & O P.P.P.P.P.P.P.P.P.P.P.P.P.P.P.P.P.P.P.P.P.",
"P.P.P.P.P.P.P.P.P.P.P.P.P.P.P.P.P.P.O $ = , a ] 8.j.n.C.S.D.F.F.F.F.D.A.V.b.u.=.^ q - % & O P.P.P.P.P.P.P.P.P.P.P.P.P.P.P.P.P.P.",
"P.P.P.P.P.P.P.P.P.P.P.P.P.P.P.@ $ = , Q 8.c.Z.J.L.L.L.L.J.G.J.G.J.G.J.J.G.J.L.J.F.C.j...e - % & P.P.P.P.P.P.P.P.P.P.P.P.P.P.P.P.",
"P.P.P.P.P.P.P.P.P.P.P.P.P.@ $ = q ..z.D.J.J.J.G.H.G.G.G.G.G.G.G.G.G.G.G.G.G.G.G.G.L.L.L.C.u.( , = & P.P.P.P.P.P.P.P.P.P.P.P.P.P.",
"P.P.P.P.P.P.P.P.P.P.P.P.& = q =.N.F.L.J.J.G.G.G.G.G.G.G.G.G.G.G.G.G.G.G.G.G.G.G.G.G.G.G.L.L.F.c._ , = & P.P.P.P.P.P.P.P.P.P.P.P.",
"P.P.P.P.P.P.P.P.P.P.O = < $.M.L.J.J.G.G.J.J.G.G.G.G.G.G.G.G.G.G.G.G.G.G.G.G.G.G.G.G.G.G.G.G.G.L.F.z.~ - % O P.P.P.P.P.P.P.P.P.P.",
"P.P.P.P.P.P.P.P.@ % = ~ c.J.L.F.G.G.G.G.G.J.G.G.G.G.G.G.G.G.G.G.G.G.G.G.G.G.G.G.G.G.G.G.G.G.G.G.J.L.D.w.r = & P.P.P.P.P.P.P.P.P.",
"P.P.P.P.P.P.P.& = w q.S.J.G.G.G.G.G.G.G.G.G.G.G.G.G.G.G.G.G.G.G.G.G.G.G.G.G.G.G.G.G.G.G.G.G.G.G.J.F.J.J.B. .- % # P.P.P.P.P.P.P.",
"P.P.P.P.P.+ $ - ) M.L.J.G.G.G.G.G.G.G.G.G.G.G.G.G.G.G.G.G.G.G.G.G.G.G.G.G.G.G.G.G.G.G.G.G.G.G.G.J.J.J.G.J.F.e.w = & P.P.P.P.P.P.",
"P.P.P.P.@ % , 2.D.L.G.G.G.G.G.G.G.G.G.G.G.G.G.G.G.G.G.G.G.G.G.G.G.G.G.G.G.G.G.G.G.G.G.G.G.G.G.G.G.G.G.G.J.J.J.m.M = & P.P.P.P.P.",
"P.P.P.@ = 0 s.H.L.G.G.G.G.G.G.G.G.G.G.G.G.G.G.G.G.G.G.G.G.G.G.G.G.G.G.G.G.G.G.G.G.G.G.G.G.G.G.G.G.G.G.G.G.G.J.J.Z.[ = & P.P.P.P.",
"P.P.+ = w c.L.L.G.G.G.G.G.G.G.G.G.G.G.G.G.G.G.G.G.G.G.G.G.G.G.G.G.G.G.G.G.G.G.G.G.G.G.G.G.G.G.G.G.G.G.G.G.G.G.G.J.S.} = & P.P.P.",
"P.P.% 0 c.L.K.F.G.G.G.G.G.G.G.G.G.G.G.G.G.G.G.G.G.G.G.G.G.G.G.G.G.G.G.G.G.G.G.G.G.G.G.G.G.G.G.G.G.G.G.G.G.G.G.G.J.J.D.{ = & P.P.",
"P.& - t.L.G.G.G.G.G.G.G.G.G.G.G.G.G.G.G.G.G.G.G.G.G.G.G.G.G.G.G.G.G.G.G.G.G.G.G.G.G.G.G.G.G.G.G.G.G.G.G.G.G.G.G.J.H.J.A./ = # P.",
"+ % { F.G.G.G.G.G.G.G.G.G.G.G.G.G.G.G.G.G.G.G.G.G.G.G.G.G.G.G.G.G.G.G.G.G.G.G.G.G.G.G.G.G.G.G.G.G.G.G.G.G.G.G.G.G.G.J.J.N.w $ P.",
"O : c.J.F.F.J.J.G.G.G.G.G.G.G.G.G.G.G.G.G.G.G.G.J.G.G.G.G.G.G.G.G.G.G.G.G.G.G.G.G.G.G.G.G.G.G.G.G.G.G.G.G.G.G.G.G.G.G.G.J.4.% + ",
"& a A.J.J.J.G.G.G.G.G.G.G.G.G.G.G.G.G.G.G.G.G.G.J.J.G.G.G.G.J.J.G.G.G.G.G.G.G.G.G.G.G.G.G.G.G.G.G.G.G.G.G.G.G.G.G.G.G.G.L.n., o ",
"* s S.J.G.G.G.G.G.G.G.G.G.G.G.G.G.G.G.G.G.G.G.J.J.J.J.J.J.J.J.J.G.J.F.L.G.L.F.L.L.G.G.G.G.G.G.G.G.G.G.G.G.G.G.G.G.G.G.G.L.m.< O ",
"* E S.H.G.G.G.G.G.G.G.G.G.G.G.G.G.G.G.G.G.F.S.S.A.A.D.A.A.A.D.A.S.S.A.A.S.S.A.S.S.D.G.G.G.G.G.G.G.G.G.G.G.G.G.G.G.G.G.G.J.n.1 @ ",
"& W D.G.G.G.G.G.G.G.G.G.G.G.G.G.G.G.G.G.J.A./ a a a a a a a a a a a a a a a a p a $.F.G.G.G.G.G.G.G.G.G.G.G.G.G.G.G.G.J.L.n., @ ",
"& W D.G.G.G.G.G.G.G.G.G.G.G.G.G.G.G.G.G.J.C.0 = q R R q e e e e e e e e e e e < = n F.G.G.G.G.G.G.G.G.G.G.G.G.G.G.G.G.J.J.n., o ",
"& b D.G.G.G.G.G.G.G.G.G.G.G.G.G.G.G.G.G.L.V.0 2 m.A.A.A.A.A.A.A.A.A.A.A.S.A.D.-.= M D.L.G.G.G.G.G.G.G.G.G.G.G.G.G.G.F.J.L.n.1   ",
"& E D.G.G.G.G.G.G.G.G.G.G.G.G.G.G.G.G.G.G.V.0 2 B.J.G.J.J.J.J.J.G.J.J.F.G.L.L.8.= ~ F.G.G.G.G.G.G.G.G.G.G.G.G.G.G.G.J.H.L.n.,   ",
"* f D.L.G.G.G.G.G.G.G.G.G.G.G.G.G.G.G.G.J.V.0 2 V.J.F.J.G.G.G.G.G.G.G.G.G.G.L.8.= ~ F.G.G.G.G.G.G.G.G.G.G.G.G.G.G.G.G.G.J.n.,   ",
"& f D.J.G.G.G.G.G.G.G.G.G.G.G.G.G.G.G.G.L.V.0 2 V.J.G.J.G.G.G.G.G.G.G.G.G.G.L.8.= ~ F.F.G.G.G.G.G.G.G.G.G.G.G.G.G.G.G.G.J.n.,   ",
"& f S.J.G.G.G.G.G.G.G.G.G.G.G.G.G.G.G.G.L.V.0 2 V.J.G.G.G.G.G.G.G.G.G.G.G.J.L.9.= ~ F.G.G.G.G.G.G.G.G.G.G.G.G.G.G.G.G.G.J.n.:   ",
"& f D.F.G.G.G.G.G.G.G.G.G.G.G.G.G.G.G.G.L.V.0 2 V.J.G.G.G.G.G.G.G.G.G.G.G.J.L.8.= ~ F.G.G.G.G.G.G.G.G.G.G.G.G.G.G.G.G.G.J.b.:   ",
"& f S.J.G.G.G.G.G.G.G.G.G.G.G.G.G.G.G.G.L.V.0 2 B.G.G.G.G.G.G.G.G.G.G.G.G.G.L.9.= ~ F.G.G.G.G.G.G.G.G.G.G.G.G.G.G.G.G.G.L.n.:   ",
"* f S.G.G.G.G.G.G.G.G.G.G.G.G.G.G.G.G.G.L.V.0 2 V.G.G.G.G.G.G.G.G.G.G.G.G.G.L.8.= ~ F.G.G.G.G.G.G.G.G.G.G.G.G.G.G.G.G.G.J.n.:   ",
"& f S.G.G.G.G.G.G.G.G.G.G.G.G.G.G.G.G.G.G.V.0 2 B.J.G.G.G.G.G.G.G.G.G.G.G.G.L.8.= ~ F.G.G.G.G.G.G.G.G.G.G.G.G.G.G.G.G.G.J.v.:   ",
"& f S.K.G.G.G.G.G.G.G.G.G.G.G.G.G.G.G.G.L.V.0 2 B.J.G.G.G.G.G.G.G.G.G.G.G.G.L.9.= ~ F.G.G.G.G.G.G.G.G.G.G.G.G.G.G.G.G.J.J.b.:   ",
"& f S.J.G.G.G.G.G.G.G.G.G.G.G.G.G.G.G.G.L.V.0 2 V.G.G.G.G.G.G.G.G.G.G.G.G.G.L.8.= ~ F.G.G.G.G.G.G.G.G.G.G.G.G.G.G.G.G.G.J.n.,   ",
"& f S.G.G.G.G.G.G.G.G.G.G.G.G.G.G.G.G.G.L.V.0 2 B.L.G.G.G.G.G.G.G.G.G.G.G.G.L.9.= ~ F.G.G.G.G.G.G.G.G.G.G.G.G.G.G.G.G.G.L.n.:   ",
"& f S.G.G.G.G.G.G.G.G.G.G.G.G.G.G.G.J.J.L.V.0 2 B.J.G.G.G.G.G.G.G.G.G.G.G.J.L.8.= ~ F.G.G.G.G.G.G.G.G.G.G.G.G.G.G.G.G.G.G.b.:   ",
"& f S.G.G.G.G.G.G.G.G.G.G.G.G.G.G.G.F.J.L.V.0 2 B.J.G.G.G.G.K.K.G.G.G.G.G.J.L.8.= ~ F.G.G.G.G.G.G.G.G.G.G.G.G.G.G.G.G.G.L.b.:   ",
"& f S.F.G.G.G.G.G.G.G.G.G.G.G.G.G.G.G.G.G.V.0 2 V.L.L.L.K.L.L.K.L.K.L.L.L.L.L.9.= ~ F.G.G.G.G.G.G.G.G.G.G.G.G.G.G.G.G.G.L.n., o ",
"& f D.G.G.G.G.G.G.G.G.G.G.G.G.G.G.G.G.G.L.V.0 , &.8.8.8.8.-.8.8.8.8.8.;.8.8.8.~ = ~ F.G.G.G.G.G.G.G.G.G.G.G.G.G.G.G.G.L.G.n.-   ",
"& s A.G.G.G.G.G.G.G.G.G.G.G.G.G.G.G.G.J.L.A.q = = % % % % % $ $ $ $ % % % % % = = ~ G.G.L.F.G.G.G.G.G.G.G.G.G.G.G.G.L.F.L.t.* o ",
"o - 9.F.L.L.G.G.G.G.G.G.G.G.G.G.G.G.F.N.p.&.7 ; > 7 9 d 8 y f 4 7 b d p a 7 > > ; y q.b.A.L.G.G.G.G.G.G.G.G.G.G.F.L.L.K.n.r % P.",
"P.& - ] y.B.D.L.L.L.G.G.G.G.G.G.J.B.' v $.S L 3.r.I 7.N.Y T x.,.<.V.a.g.v.<.U s.I N c x Q h.F.G.G.G.G.G.G.L.L.L.F.C.j.O.q %   P.",
"P.P.. $ = 2 ! -.z.A.H.L.L.G.G.G.L.n.p w ..K B +.l.6.i.v.3.6.d.d.7.m.<.<.a.r.3.h.S N c i 0 0.L.G.G.G.J.L.L.D.n.0.' q - = %   P.P.",
"P.P.P.P.P.. $ % - e ] e.N.D.L.L.J.G.a.J c m y i f f d f d d i f d b d y 9 p 9 p y v Z | s.G.L.L.L.G.C.k.%.E 1 = = $ X P.P.P.P.P.",
"P.P.P.P.P.P.P.P.P.$ % = 3 ! -.z.Z.J.D.5.Y 5.3.r.i.r.V J @.K @.*.S S | +.P >.P 5.>.5.5.7.A.L.F.n.w.' q - = % $ P.P.P.P.P.P.P.P.P.",
"P.P.P.P.P.P.P.P.P.P.P.P.. % % - R ] e.i.#.<.:.x.a.g.6.3.r.d.a.g.a.,.d.x.7.5.U 5.5.<.>.7.k.-.E < = % % . P.P.P.P.P.P.P.P.P.P.P.P.",
"P.P.P.P.P.P.P.P.P.P.P.P.P.P.P.X $ % = < m g.:.M +.H A P C m J C v D A ) +.B C c S G J 0 - % % $ P.P.P.P.P.P.P.P.P.P.P.P.P.P.P.P.",
"P.P.P.P.P.P.P.P.P.P.P.P.P.P.P.P.P.P.P.$ & 1.:.8 Z C 8 h N 7 6 V > m d u H t m u P C z $ . P.P.P.P.P.P.P.P.P.P.P.P.P.P.P.P.P.P.P.",
"P.P.P.P.P.P.P.P.P.P.P.P.P.P.P.P.P.P.P.P.P.P.:.F G I F k I k j I P.k F l I P.I F I #.P.P.P.P.P.P.P.P.P.P.P.P.P.P.P.P.P.P.P.P.P.P.",
"P.P.P.P.P.P.P.P.P.P.P.P.P.P.P.P.P.P.P.P.P.P.I H I I I P.I F P.H F k H F H F I l I ,.P.P.P.P.P.P.P.P.P.P.P.P.P.P.P.P.P.P.P.P.P.P.",
"P.P.P.P.P.P.P.P.P.P.P.P.P.P.P.P.P.P.P.P.P.P.P.:.U T I U H H P.F k l P.H l F F H 5.P.P.P.P.P.P.P.P.P.P.P.P.P.P.P.P.P.P.P.P.P.P.P.",
"P.P.P.P.P.P.P.P.P.P.P.P.P.P.P.P.P.P.P.P.P.P.P.P.Y <.F I T H l F I P.H U P.U H U <.P.P.P.P.P.P.P.P.P.P.P.P.P.P.P.P.P.P.P.P.P.P.P.",
"P.P.P.P.P.P.P.P.P.P.P.P.P.P.P.P.P.P.P.P.P.P.P.P.L ,.T P.I F H H T U j >.P.T U Y P.P.P.P.P.P.P.P.P.P.P.P.P.P.P.P.P.P.P.P.P.P.P.P.",
"P.P.P.P.P.P.P.P.P.P.P.P.P.P.P.P.P.P.P.P.P.P.P.P.,.>.,.V F H I T I H l T F H T 5.P.P.P.P.P.P.P.P.P.P.P.P.P.P.P.P.P.P.P.P.P.P.P.P.",
"P.P.P.P.P.P.P.P.P.P.P.P.P.P.P.P.P.P.P.P.P.P.P.P.P.,.I U P.,.F H I T U F H F >.F P.P.P.P.P.P.P.P.P.P.P.P.P.P.P.P.P.P.P.P.P.P.P.P.",
"P.P.P.P.P.P.P.P.P.P.P.P.P.P.P.P.P.P.P.P.P.P.P.P.P.T Y :.F L H P.,.H :.F U l >.g P.P.P.P.P.P.P.P.P.P.P.P.P.P.P.P.P.P.P.P.P.P.P.P.",
"P.P.P.P.P.P.P.P.P.P.P.P.P.P.P.P.P.P.P.P.P.P.P.P.P.:.Y H H H <.P.:.H ,.F I F Y l P.P.P.P.P.P.P.P.P.P.P.P.P.P.P.P.P.P.P.P.P.P.P.P.",
"P.P.P.P.P.P.P.P.P.P.P.P.P.P.P.P.P.P.P.P.P.P.P.P.P.,.Y I :.U Y H H :.H H H :.T >.P.P.P.P.P.P.P.P.P.P.P.P.P.P.P.P.P.P.P.P.P.P.P.P.",
"P.P.P.P.P.P.P.P.P.P.P.P.P.P.P.P.P.P.P.P.P.P.P.P.H I Y H T U H <.H :.I :.<.,.I T P.P.P.P.P.P.P.P.P.P.P.P.P.P.P.P.P.P.P.P.P.P.P.P.",
"P.P.P.P.P.P.P.P.P.P.P.P.P.P.P.P.P.P.P.P.P.P.P.P.T Y :.H :.I Y Y Y I I :.5.:.T F P.P.P.P.P.P.P.P.P.P.P.P.P.P.P.P.P.P.P.P.P.P.P.P.",
"P.P.P.P.P.P.P.P.P.P.P.P.P.P.P.P.P.P.P.P.P.P.P.P.6.T F F #.G I I :.H T I :.H #.7.P.P.P.P.P.P.P.P.P.P.P.P.P.P.P.P.P.P.P.P.P.P.P.P.",
"P.P.P.P.P.P.P.P.P.P.P.P.P.P.P.P.P.P.P.P.P.P.P.P.5.:.:.T :.#.H U Y Y Y Y Y I I T F P.P.P.P.P.P.P.P.P.P.P.P.P.P.P.P.P.P.P.P.P.P.P.",
"P.P.P.P.P.P.P.P.P.P.P.P.P.P.P.P.P.P.P.P.P.P.P.P.:.I L #.<.:.,.3.T U Y ,.T >.:.I H P.P.P.P.P.P.P.P.P.P.P.P.P.P.P.P.P.P.P.P.P.P.P.",
"P.P.P.P.P.P.P.P.P.P.P.P.P.P.P.P.P.P.P.P.P.P.P.P.H F Y T ,.Y ,.Y :.P.H H #.3.T Y P.P.P.P.P.P.P.P.P.P.P.P.P.P.P.P.P.P.P.P.P.P.P.P.",
"P.P.P.P.P.P.P.P.P.P.P.P.P.P.P.P.P.P.P.P.P.P.P.P.P.P.I H T H :.T I L F H I I H P.P.P.P.P.P.P.P.P.P.P.P.P.P.P.P.P.P.P.P.P.P.P.P.P."
};
