/* XPM */
static char *result[] = {
/* columns rows colors chars-per-pixel */
"64 64 232 2 ",
"   c #0E0C0A",
".  c #0F0B07",
"X  c #120D0A",
"o  c #100B07",
"O  c #14110E",
"+  c #1C110E",
"@  c #0D0D12",
"#  c #151211",
"$  c #1A1613",
"%  c #1C1916",
"&  c #15131B",
"*  c #1A151C",
"=  c #1E1B1B",
"-  c #24120C",
";  c #211513",
":  c #2A1B13",
">  c #221D1B",
",  c #2D1E19",
"<  c #241717",
"1  c #341C14",
"2  c #391C17",
"3  c #2B211C",
"4  c #25211D",
"5  c #38221B",
"6  c #1A1721",
"7  c #1D1A24",
"8  c #171829",
"9  c #1C1D33",
"0  c #191C38",
"q  c #221C25",
"w  c #221E2A",
"e  c #2F1E24",
"r  c #221F30",
"t  c #1A2139",
"y  c #252122",
"u  c #26222D",
"i  c #28232D",
"p  c #2D2524",
"a  c #332924",
"s  c #372727",
"d  c #2A2533",
"f  c #2C2934",
"g  c #252337",
"h  c #362B36",
"j  c #3A3237",
"k  c #343135",
"l  c #4C1B13",
"z  c #441C14",
"x  c #591D12",
"c  c #53180E",
"v  c #661E12",
"b  c #681B0E",
"n  c #45251D",
"m  c #5B241A",
"M  c #57261A",
"N  c #642315",
"B  c #612719",
"V  c #6C2B1C",
"C  c #682618",
"Z  c #732C1C",
"A  c #792815",
"S  c #76311D",
"D  c #6C351F",
"F  c #462A23",
"G  c #552B22",
"H  c #5B2D22",
"J  c #5F2F2D",
"K  c #47322B",
"L  c #5B3427",
"P  c #423A3C",
"I  c #473939",
"U  c #553937",
"Y  c #402B34",
"T  c #652D24",
"R  c #732D22",
"E  c #62352A",
"W  c #653A2C",
"Q  c #6C3D2D",
"!  c #6C3527",
"~  c #733423",
"^  c #733B2C",
"/  c #7B3D2B",
"(  c #793726",
")  c #6B3D32",
"_  c #753B34",
"`  c #56413B",
"'  c #48443E",
"]  c #674337",
"[  c #7A4433",
"{  c #7D4B36",
"}  c #764537",
"|  c #7F432D",
" . c #1A1F41",
".. c #1D244A",
"X. c #1E2C57",
"o. c #292B47",
"O. c #332D51",
"+. c #283558",
"@. c #393953",
"#. c #312E44",
"$. c #253669",
"%. c #283A71",
"&. c #432941",
"*. c #453B41",
"=. c #533D44",
"-. c #4D3B5C",
";. c #533F62",
":. c #3B4458",
">. c #354150",
",. c #374677",
"<. c #2D4873",
"1. c #4B4448",
"2. c #474554",
"3. c #585256",
"4. c #5D4A4D",
"5. c #6B4A44",
"6. c #784C46",
"7. c #6C504A",
"8. c #7B5749",
"9. c #774D5C",
"0. c #685956",
"q. c #6E5459",
"w. c #6B645F",
"e. c #4A4B65",
"r. c #584E66",
"t. c #4A556B",
"y. c #454D7A",
"u. c #595773",
"i. c #505376",
"p. c #6B5A64",
"a. c #6F5570",
"s. c #576175",
"d. c #766565",
"f. c #746C74",
"g. c #88331B",
"h. c #96391B",
"j. c #8B2B1A",
"k. c #A33F1A",
"l. c #853B26",
"z. c #8F3B2C",
"x. c #96421F",
"c. c #A7431D",
"v. c #85422A",
"b. c #95482D",
"n. c #8B4B33",
"m. c #834D3A",
"M. c #894736",
"N. c #954B36",
"B. c #88533D",
"V. c #965439",
"C. c #A74821",
"Z. c #B44F26",
"A. c #AB532E",
"S. c #B7542A",
"D. c #BA5C33",
"F. c #B5623E",
"G. c #C25C2F",
"H. c #C46337",
"J. c #8C5342",
"K. c #885848",
"L. c #965B46",
"P. c #915554",
"I. c #A35B45",
"U. c #BD5B47",
"Y. c #9D624D",
"T. c #8B6355",
"R. c #996A58",
"E. c #9C745F",
"W. c #A66449",
"Q. c #B86A45",
"!. c #A46953",
"~. c #A6735E",
"^. c #BB7959",
"/. c #8A5E63",
"(. c #896563",
"). c #8B7471",
"_. c #94746B",
"`. c #AD7561",
"'. c #C46D44",
"]. c #C9744A",
"[. c #C77954",
"{. c #BC836A",
"}. c #AE8379",
"|. c #CF845C",
" X c #CA8D71",
".X c #2D4787",
"XX c #33498A",
"oX c #3D518A",
"OX c #324F93",
"+X c #355292",
"@X c #355AA5",
"#X c #495787",
"$X c #455A98",
"%X c #525889",
"&X c #556282",
"*X c #506596",
"=X c #6C6793",
"-X c #6B7899",
";X c #6F6788",
":X c #466CB5",
">X c #4B72B5",
",X c #526DAC",
"<X c #6B7CB2",
"1X c #577DC7",
"2X c #817886",
"3X c #857897",
"4X c #A87C8A",
"5X c #7D819A",
"6X c #6B8EBC",
"7X c #5788D6",
"8X c #598AD3",
"9X c #7698D2",
"0X c #628FD2",
"qX c #79A9DD",
"wX c #8A8988",
"eX c #83869A",
"rX c #93909E",
"tX c #B59391",
"yX c #869DBF",
"uX c #AF98A8",
"iX c #9AA3AD",
"pX c #A3ABBC",
"aX c #ABA4AE",
"sX c #CB9891",
"dX c #DBA387",
"fX c #D3ACA6",
"gX c #92B0C5",
"hX c #9BBEEA",
"jX c #ADBCD1",
"kX c #9AC0D3",
"lX c #C2D0E6",
"zX c None",
/* pixels */
"zXzXzXzXzXzXzXzXzXzXzXzXzXzXzXa 3 3 3 zXzXzXzXzXzXzXzXzXzXzXzXzXzXzXzXzXzXzXzXzXzXzXzXzXzXzXzXzXzXzXzXzXzXzXzXzXzXzXzXzXzXzXzXzX",
"zXzXzXzXzXzXzXzXzXzXzXzXzX1.P =.a k a 3 zXzXzXzXzXzXzXzXzXzXzXzXzXzXzXzXzXzXzXzXzXzXzXzXzXzXzXzXzXzXzXzXzXzXzXzXzXzXzXzXzXzXzXzX",
"zXzXzXzXzXzXzXzXzXzXzXzXzX3 k p.  O $ % zXzXzXzXzXzXzXzXzXzXzXzXzXzXzXzXzXzXzXzXzXzXzXzXzXzXzXzXzXzXzXzXzXzXzXzXzXzXzXzXzXzXzXzX",
"zXzXzXzXzXzXzXzXzXzXzXzX> $ p K 5 ; o O % zXzXzXzXzXzXzXzXzXzXzXzXzXzXzXzXzXzXzXzXzXzXzXzXzXzXzXzXzXzXzXzXzXzXzXzXzXzXzXzXzXzXzX",
"zXzXzXzXzXzXzXzXzXzXzXzXzXK F M G L G ; * zXzXzXzXzXzXzXzXzXzXzXzXzXzXzXzXzXzXzXzXzXzXzXzXzXzXzXzXzXzXzXzXzXzXzXzXzXzXzXzXzXzXzX",
"zXzXzXzXzXzXzXzXzXzXzXzXzXF 2 ) n W B.U E zXzXzXzXzXzXzXzXzXzXzXzXzXzXzXzXzXzXzXzXzXzXzXzXzXzXzXzXzXzXzXzXzXzXzXzXzXzXzXzXzXzXzX",
"zXzXzXzXzXzXzXzXzXzXzXzXzX) _ `.J.V.B.Q B.zXzXzXzXzXzXzXzXzXzXzXzXzXzXzXzXzXzXzXzXzXzXzXzXzXzXzXzXzXzXzXzXzXzXzXzXzXzXzXzXzXzXzX",
"zXzXzXzXzXzXzXzXzXzXzXzXzXL ) [ [ v.^ Y -XzXzXzXzXzXzXzXzXzXzXzXzXzXzXzXzXzXzXzXzXzXzXzXzXzXzXzXzXzXzXzXzXzXzXzXzXzXzXzXzXzXzXzX",
"zXzXzXzXzXzXzXzXzXzXzXzXzX: z F ) W 2 e ;X<X).`.{.zXzXzXzXzXzXzXzXzXzXzXzXzXzXzXzXzXzXzXzXzXzXzXzXzXzXzXzXzXzXzXzXzXzXzXzXzXzXzX",
"zXzXzXzXzXzXzXzXzXzXzXzXU + : J E 2 # , ) <X=X~. X{.zXzXzXzXzXzXzXzXzXzXzXzXzXzXzXzXzXzXzXzXzXzXzXzXzXzXzXzXzXzXzXzXzXzXzXzXzXzX",
"zXzXzXzXzXzXzXzXzXzXT.9.#.+ o 1 1 @ < n F 3X>X(.Y.!.zXzXzXzXzXzXzXzXzXzXQ.].zXzXzXzXzXzXzXzXzXzXzXzXzXzXzXzXzXzXzXzXzXzXzXzXzXzX",
"zXzXzXzXzXzXzXzXzX_.K.{ T * . . o X 2 e L =X>Xa.m.V.zXzXzXzXzXzXzXdX|.].Q.Q.'.'.zXzXzXzXzXzXzXzXzXzXzXzXzXzXzXzXzXzXzXzXzXzXzXzX",
"zXzXzXzXzXzXzXzXT.J.Y.!._ 2 X X @ - m J _ $X<X=XK.{ L.zXzXzXzXzX X|.H.'.].|.^.[.[.zXzXzXzXzXzXzXzXzXzXzXzXzXzXzXzXzXzXzXzXzXzXzX",
"zXzXzXzXzXzXzXzXT / B.Y.L.G + 1 l l j.j.9.XX$X$Xa.N.J.R.R.E.`.R.W.H.H.H.Q.^.|.{.[.Q.zXzXzXzXzXzXzXzXzXzXzXzXzXzXzXzXzXzXzXzXzXzX",
"zXzXzXzXzXzXzXH m ( l.n.V.! e 9 &.z.z.N.%X%.OX@X.X9.B.} L.J.J./ S x.Z.D.H.F.'.Q.F.U.zXzXzXzXzXzXzXzXzXzXzXzXzXzXzXzXzXzXzXzXzXzX",
"zXzXzXzXzXzXzXM m S l.z.N./ -.X.XXXXy.a.OX#X#X$Xu.,.q.} H E m.B N Z x.C.S.G.A.S.A.S.zXzXzXzXzXzXzXzXzXzXzXzXzXzXzXzXzXzXzXzXzXzX",
"zXzXzXzXzXzXzXB C R l.l.l.^ ;.OX.X@X,X*X5X-XeXf.(.3X8.E W _ T l x b A h.c.Z.Z.c.S.D.zXzXzXzXzXzXzXzXzXzXzXzXzXzXzXzXzXzXzXzXzXzX",
"zXzXzXzXzXzXzX! Z Z l.g.B ~ -..X,.,.&XrXeXeX5Xd.R./.J.Q H M H G c b b A h.c.c.c.c.S.zXzXzXzXzXzXzXzXzXzXzXzXzXzXzXzXzXzXzXzXzXzX",
"zXzXzXzXzXzXzXT Z A g.S M Z O.y.i.f.,.).u.%Xe.J.L.J.} / Q [ J.J.c b b A A g.h.c.x.zXzXzXzXzXzXzXzXzXzXzXzXzXzXzXzXzXzXzXzXzXzXzX",
"zXzXzXzXzXzXzX! R Z g.z.| m I p.;Xu.e.#.@.e.6.W.L.m./ _ E zXzXzXzXc b A A A A h.zXzXzXzXzXzXzXzXzXzXzXzXzXzXzXzXzXzXzXzXzXzXzXzX",
"zXzXzXzXzXzXzX^ l.z.N.V.V.2 ` 7.d.@.:.-.=.} ] !.I.z.! T Q zXzXzXzXzXZ S g.g.h.zXzXzXzXzXzXzXzXzXzXzXzXzXzXzXzXzXzXzXzXzXzXzXzXzX",
"zXzXzXzXzXzXzX! ( M.W.V.n., q U u 0 3.] [ | [ ^ b.^ =._ l.zXzXzXzXzXzXzXzXzXzXzXzXzXzXzXzXzXzXzXzXzXzXzXzXzXzXzXzXzXzXzXzXzXzXzX",
"zXzXzXzXzXzXzXT R ( b.N.v.< @ & > F [ n.v.~ _ F Y g %.f n zXzXzXzXzXzXzXzXzXzXzXzXzXzXzXzXzXzXzXzXzXzXzXzXzXzXzXzXzXzXzXzXzXzXzX",
"zXzXzXzXzXzXzXzXC Z ~ / L $ , L ) ^ n.v.T Q K.I 8 0 +.h 5 /.zXzXzXzXzXzXzXzXzXzXzXzXzXzXzXzXzXzXzXzXzXzXzXzXzXzXzXzXzXzXzXzXzXzX",
"zXzXzXzXzXzXzXzXC C m T W } { m.v./ ~ m 1 s 8.Y 8 0 #.B > 6.%XzXzXzXzXzXzXzXzXzXzXzXzXzXzXzXzXzXzXzXzXzXzXzXzXzXzXzXzXzXzXzXzXzX",
"zXzXzXzXzXzXzXzXm x l G ^ ! T ( ~ V l W j 8 d.f.t 0 O.N.w ] =XzXzXzXzXzXzXzXzXzXzXzXzXzXzXzXzXzXzXzXzXzXzXzXzXzXzXzXzXzXzXzXzXzX",
"zXzXzXzXzXzXzXzXM x M m m B Z T B z * 7.3.-.r.f. .$.+XR.Y ) =X:XzXzXzXzXzXzXzXzXzXzXzXzXzXzXzXzXzXzXzXzXzXzXzXzXzXzXzXzXzXzXzXzX",
"zXzXzXzXzXzXzXzXzXc x b v C C x s w 7 U ] -.).-...XX@Xa.m.Y /.,XzXzXzXzXzXzXzXzXzXzXzXzXzXzXzXzXzXzXzXzXzXzXzXzXzXzXzXzXzXzXzXzX",
"zXzXzXzXzXzXzXzXzXzXv v C v m e q w q q e 9 0  .$.OXXXa.!.4.9.%.>XzXzXzXzXzXzXzXzXzXzXzXzXzXzXzXzXzXzXzXzXzXzXzXzXzXzXzXzXzXzXzX",
"zXzXzXzXzXzXzXzXzXzXzXC zXzXzXG q w 6 * 8 9 8 ..$.%.*XpXfXsXtX,X,XzXzXzXzXzXzXzXzXzXzXzXzXzXzXzXzXzXzXzXzXzXzXzXzXzXzXzXzXzXzXzX",
"zXzXzXzXzXzXzXzXzXzXzXzXzXzXzXR e w q 8 9 8 6 0 ..$X<XuXuXsXuXyX8XzXzXzXzXzXzXzXzXzXzXzXzXzXzXzXzXzXzXzXzXzXzXzXzXzXzXzXzXzXzXzX",
"zXzXzXzXzXzXzXzXzXzXzXzXzXzXzXzXT w q r  ...9 8 X.$X1X4X!.d.4X9X7XzXzXzXzXzXzXzXzXzXzXzXzXzXzXzXzXzXzXzXzXzXzXzXzXzXzXzXzXzXzXzX",
"zXzXzXzXzXzXzXzXzXzXzXzXzXzXzXzXzXe w w o...8 g r.p.w.8.] B.}.7X7XzXzXzXzXzXzXzXzXzXzXzXzXzXzXzXzXzXzXzXzXzXzXzXzXzXzXzXzXzXzXzX",
"zXzXzXzXzXzXzXzXzXzXzXzXzXzXzXzXzXw 7 8 8 6 & h K & & 7 f k (.8X0XzXzXzXzXzXzXzXzXzXzXzXzXzXzXzXzXzXzXzXzXzXzXzXzXzXzXzXzXzXzXzX",
"zXzXzXzXzXzXzXzXzXzXzXzXzXzXzXzXzXzX7 6 & & * >   & u f k f k 5X0XzXzXzXzXzXzXzXzXzXzXzXzXzXzXzXzXzXzXzXzXzXzXzXzXzXzXzXzXzXzXzX",
"zXzXzXzXzXzXzXzXzXzXzXzXzXzXzXzXzXzXw 8 6 6 * X & y y 4 = y p e.0XzXzXzXzXzXzXzXzXzXzXzXzXzXzXzXzXzXzXzXzXzXzXzXzXzXzXzXzXzXzXzX",
"zXzXzXzXzXzXzXzXzXzXzXzXzXzXzXzXzXzXzXh 7 8 7 @ O % % = > $ > j zXzXzXzXzXzXzXzXzXzXzXzXzXzXzXzXzXzXzXzXzXzXzXzXzXzXzXzXzXzXzXzX",
"zXzXzXzXzXzXzXzXzXzXzXzXzXzXzXzXzXzXzXh u 7 7     % = > > % $ f <XzXzXzXzXzXzXzXzXzXzXzXzXzXzXzXzXzXzXzXzXzXzXzXzXzXzXzXzXzXzXzX",
"zXzXzXzXzXzXzXzXzXzXzXzXzXzXzXzXzXzXzXzXu d 7 & # % % % % % % #.:X7XzXzXzXzXzXzXzXzXzXzXzXzXzXzXzXzXzXzXzXzXzXzXzXzXzXzXzXzXzXzX",
"zXzXzXzXzXzXzXzXzXzXzXzXzXzXzXzXzXzXzXzX7 d d w 7 $ # $ % $ $ u <.:XzXzXzXzXzXzXzXzXzXzXzXzXzXzXzXzXzXzXzXzXzXzXzXzXzXzXzXzXzXzX",
"zXzXzXzXzXzXzXzXzXzXzXzXzXzXzXzXzXzXzXzXzXw w d u = X X # $ % % > k oXzXzXzXzXzXzXzXzXzXzXzXzXzXzXzXzXzXzXzXzXzXzXzXzXzXzXzXzXzX",
"zXzXzXzXzXzXzXzXzXzXzXzXzXzXzXzXzXzXzXzXzXzXd f d w # o   # # % % % y :.zXzXzXzXzXzXzXzXzXzXzXzXzXzXzXzXzXzXzXzXzXzXzXzXzXzXzXzX",
"zXzXzXzXzXzXzXzXzXzXzXzXzXzXzXzXzXzXzXzXzXzXzXj h g q X   o O # $ % % 4 a zXzXzXzXzXzXzXzXzXzXzXzXzXzXzXzXzXzXzXzXzXzXzXzXzXzXzX",
"zXzXzXzXzXzXzXzXzXzXzXzXzXzXzXzXzXzXzXzXzXzXzXzXzXh d w * # X X O % % > 4 zXzXzXzXzXzXzXzXzXzXzXzXzXzXzXzXzXzXzXzXzXzXzXzXzXzXzX",
"zXzXzXzXzXzXzXzXzXzXzXzXzXzXzXzXzXzXzXzXzXzXzXzXzXzXzXi d o.* X   O % % % 4 zXzXzXzXzXzXzXzXzXzXzXzXzXzXzXzXzXzXzXzXzXzXzXzXzXzX",
"zXzXzXzXzXzXzXzXzXzXzXzXzXzXzXzXzXzXzXzXzXzXzXzXzXzXzXw u O.f -     O % % 4 4 zXzXzXzXzXzXzXzXzXzXzXzXzXzXzXzXzXzXzXzXzXzXzXzXzX",
"zXzXzXzXzXzXzXzXzXzXzXzXzXzXzXzXzXzXzXzXzXzXzXzXzXzXzXzXr #._ 2   o O O % 4 a 4 4 4 zXzXzXzXzXzXzXzXzXzXzXzXzXzXzXzXzXzXzXzXzXzX",
"zXzXzXzXzXzXzXzXzXzXzXzXzXzXzXzXzXzXzXzXzXzXzXzXzXzXzXzXd Q v.zXO o o X O a }.T.4 % % > zXzXzXzXzXzXzXzXzXzXzXzXzXzXzXzXzXzXzXzX",
"zXzXzXzXzXzXzXzXzXzXzXzXzXzXzXzXzXzXzXzXzXzXzXzXzXzXzXzXl.Z zXzXzXzXo X + 6.{. X{ $ O $ % zXzXzXzXzXzXzXzXzXzXzXzXzXzXzXzXzXzXzX",
"zXzXzXzXzXzXzXzXzXzXzXzXzXzXzXzXzXzXzXzXzXzXzXzXzXzXzXzXzXzXzXzXzXzXzX+ z ( Y. X}.3 O O $ 3 zXzXzXzXzXzXzXzXzXzXzXzXzXzXzXzXzXzX",
"zXzXzXzXzXzXzXzXzXzXzXzXzXzXzXzXzXzXzXzXzXzXzXzXzXzXzXzXzXzXzXzXzXzXzXzXzXZ / ] % O O O O 3 I.B.zXzXzXzXzXkXzXzXzXzXzXzXzXzXzXzX",
"zXzXzXzXzXzXzXzXzXzXzXzXzXzXzXzXzXzXzXzXzXzXzXzXzXzXzXzXzXzXzXzXzXzXzXzXzXzX2 X O a a O O 5 V.B.> p >.K.w.rXkXzXzXzXzXzXzXzXzXzX",
"zXzXzXzXzXzXzXzXzXzXzXzXzXzXzXzXzXzXzXzXzXzXzXzXzXzXzXzXzXzXzXzXzXzXzXzXzXzXzXX   1.f.% O M b.D < 3.k T.d.wXiX6XzXzXzXzXzXzXzXzX",
"zXzXzXzXzXzXzXzXzXzXzXzXzXzXzXzXzXzXzXzXzXzXzXzXzXzXzXzXzXzXzXzXzXzXzXzXzXzXzXzX  O ` ] ` zXD : O > % 8.` ' wXpXzXzXzXzXzXzXzXzX",
"zXzXzXzXzXzXzXzXzXzXzXzXzXzXzXzXzXzXzXzXzXzXzXzXzXzXzXzXzXzXzXzXzXzXzXzXzXzXzXzXzXl.|.dX}.zXzXzXO   5 W G a }.zXzXzXzXzXzXzXzXzX",
"zXzXzXzXzXzXzXzXzXzXzXzXzXzXzXzXzXzXzXzXzXzXzXzXzXzXzXzXzXzXzXzXzXzXzXzXzXzXzXzXzXQ.w.t.s.d.Y.zXzXG ^ a ' ] f.zXzXzXzXzXzXzXzXzX",
"zXzXzXzXzXzXzXzXzXzXzXzXzXzXzXzXzXzXzXzXzXzXzXzXzXzXzXzXzXzXzXzXzXzXzXzXzXzXzXzXzX*.<.>.2.8.8.3.zXzX,.>.P W.0.zXzXzXzXzXzXzXzXzX",
"zXzXzXzXzXzXzXzXzXzXzXzXzXzXzXzXzXzXzXzXzXzXzXzXzXzXzXzXzXzXzXzXzXzXzXzXzXzXzXzXzXK :.:.4.B.L.7.f.zXzXt.2.j P iXzXzXzXzXzXzXzXzX",
"zXzXzXzXzXzXzXzXzXzXzXzXzXzXzXzXzXzXzXzXzXzXzXzXzXzXzXzXzXzXzXzXzXzXzXzXzXzXzXzXzXzX2.j p K ` 3.aXzXzXzX>.1 3 }.zXzXzXzXzXzXzXzX",
"zXzXzXzXzXzXzXzXzXzXzXzXzXzXzXzXzXzXzXzXzXzXzXzXzXzXzXzXzXzXzXzXzXzXzXzXzXzXzXzXzXzXzXI ' 5.5.f.lXqXzXzX1.n ] w.jXzXzXzXzXzXzXzX",
"zXzXzXzXzXzXzXzXzXzXzXzXzXzXzXzXzXzXzXzXzXzXzXzXzXzXzXzXzXzXzXzXzXzXzXzXzXzXzXzXzXzXzX` j P w.iXhXzXzXzXm.! n ' pXzXzXzXzXzXzXzX",
"zXzXzXzXzXzXzXzXzXzXzXzXzXzXzXzXzXzXzXzXzXzXzXzXzXzXzXzXzXzXzXzXzXzXzXzXzXzXzXzXzXzXzX' s.-XgXqXzXzXzXzXzX5 % 1.pXzXzXzXzXzXzXzX",
"zXzXzXzXzXzXzXzXzXzXzXzXzXzXzXzXzXzXzXzXzXzXzXzXzXzXzXzXzXzXzXzXzXzXzXzXzXzXzXzXzXzXzXt.#Xs.s.zXzXzXzXzXzX4 $ 3.zXzXzXzXzXzXzXzX",
"zXzXzXzXzXzXzXzXzXzXzXzXzXzXzXzXzXzXzXzXzXzXzXzXzXzXzXzXzXzXzXzXzXzXzXzXzXzXzXzXzXzXzX2.1.zXzXzXzXzXzXzXzXzXa e.zXzXzXzXzXzXzXzX"
};
