/* XPM */
static char *result[] = {
/* columns rows colors chars-per-pixel */
"64 64 164 2 ",
"   c #A61900",
".  c #AC2301",
"X  c #B42D03",
"o  c #BD3805",
"O  c #BA340F",
"+  c #A92512",
"@  c #B83113",
"#  c #B13826",
"$  c #C23503",
"%  c #C33C05",
"&  c #CC3C04",
"*  c #C33E18",
"=  c #BC4E2E",
"-  c #B54433",
";  c #B64D3F",
":  c #BA4D3D",
">  c #BE533D",
",  c #C54205",
"<  c #CB4406",
"1  c #CC4B06",
"2  c #CF4F0E",
"3  c #D74505",
"4  c #D94605",
"5  c #D24E07",
"6  c #CF5508",
"7  c #D35307",
"8  c #D45608",
"9  c #D85708",
"0  c #D55D0A",
"q  c #DB5D09",
"w  c #C64711",
"e  c #C54C1E",
"r  c #DF660A",
"t  c #DF680A",
"y  c #DB6A1B",
"u  c #E56109",
"i  c #E3680F",
"p  c #EC6D0A",
"a  c #E6730B",
"s  c #EE710B",
"d  c #EB790C",
"f  c #F2740B",
"g  c #F47D0C",
"h  c #EC7F12",
"j  c #E57918",
"k  c #C54B24",
"l  c #C95023",
"z  c #C55B28",
"x  c #C34C34",
"c  c #C3563C",
"v  c #CC5D3C",
"b  c #CD672F",
"n  c #D76327",
"m  c #CF6736",
"M  c #CE6D35",
"N  c #CD613E",
"B  c #D46E33",
"V  c #D37536",
"C  c #DA7C3A",
"Z  c #B85548",
"A  c #BD6459",
"S  c #C05742",
"D  c #C35B44",
"F  c #C65D4C",
"G  c #C36449",
"H  c #CC6241",
"J  c #C46A57",
"K  c #CD6C5C",
"L  c #C66353",
"P  c #CD7458",
"I  c #CF7060",
"U  c #C47166",
"Y  c #D17465",
"T  c #D27A6C",
"R  c #D87E6E",
"E  c #F5830D",
"W  c #F68A0E",
"Q  c #FB8B0E",
"!  c #F9860D",
"~  c #FF940F",
"^  c #FF9612",
"/  c #FF9F2E",
"(  c #E4853D",
")  c #E58435",
"_  c #FF873E",
"`  c #FF893F",
"'  c #FFA031",
"]  c #FFA238",
"[  c #FF8D41",
"{  c #E29648",
"}  c #E99E4C",
"|  c #FF9445",
" . c #FF9847",
".. c #FF9748",
"X. c #FF9C4A",
"o. c #EAA24E",
"O. c #FFA34E",
"+. c #FFAA4D",
"@. c #FFA650",
"#. c #FFAA52",
"$. c #F4A952",
"%. c #FFB256",
"&. c #FFB659",
"*. c #FFBB5C",
"=. c #CE836E",
"-. c #D9806E",
";. c #CC8174",
":. c #D68376",
">. c #DA8272",
",. c #DD8778",
"<. c #DE8A7C",
"1. c #D18479",
"2. c #DA9476",
"3. c #E18E7E",
"4. c #FFC25F",
"5. c #FFC160",
"6. c #CE8D86",
"7. c #D79684",
"8. c #DE9387",
"9. c #D2948C",
"0. c #DF9488",
"q. c #D69A92",
"w. c #D59F98",
"e. c #E39182",
"r. c #E29689",
"t. c #E69A8C",
"y. c #E89A8A",
"u. c #E69D91",
"i. c #EA9F90",
"p. c #E0A58D",
"a. c #E8A195",
"s. c #EAA498",
"d. c #F2AC9D",
"f. c #DCADA8",
"g. c #E8B5AD",
"h. c #F5B3A6",
"j. c #F8B6A7",
"k. c #F7B7A9",
"l. c #F8B6A8",
"z. c #F9BAAC",
"x. c #E2BEBA",
"c. c #FFC282",
"v. c #F9C799",
"b. c #E3C0BC",
"n. c #FFC2B4",
"m. c #FFC9BD",
"M. c #FAD6B6",
"N. c #FFDCB8",
"B. c #E5C5C2",
"V. c #E9C5C0",
"C. c #E8CCC9",
"Z. c #FFCEC2",
"A. c #FFD3C9",
"S. c #EED6D2",
"D. c #FFEDD9",
"F. c #FFE7E2",
"G. c #FFEAE5",
"H. c #F7EDEB",
"J. c #FAEEEB",
"K. c #FEF0E3",
"L. c #FBF4F3",
"P. c #FFF9F3",
"I. c #FFFFFF",
"U. c None",
/* pixels */
"U.U.U.U.U.U.U.U.U.U.U.U.U.U.U.U.U.U.U.U.U.U.U.U.U.U.U.U.U.U.U.U.U.U.U.U.U.U.U.U.U.U.U.U.U.U.U.U.U.U.U.U.U.U.U.U.U.U.U.U.U.U.U.U.",
"U.U.U.U.U.U.U.U.U.U.U.U.U.U.U.U.U.U.U.U.U.U.U.U.U.U.U.U.U.U.U.U.U.U.U.U.U.U.U.U.U.U.U.U.U.U.U.U.U.U.U.U.U.U.U.U.U.U.U.U.U.U.U.U.",
"U.U.U.U.U.U.U.U.U.U.U.U.U.U.U.U.U.U.U.U.U.U.U.U.U.U.U.[ [ U.U.U.U.U.U.[ [ U.U.U.U.U.U.U.U.U.U.U.U.U.U.U.U.U.U.U.U.U.U.U.U.U.U.U.",
"U.U.U.U.U.U.U.U.U.U.U.U.U.U.U.U.U.U.U.U.U.U.U.U.` U.U.U.U.U.U.[ [ U.U.U.U.U.U.[ U.U.U.U.U.U.U.U.U.U.U.U.U.U.U.U.U.U.U.U.U.U.U.U.",
"U.U.U.U.U.U.U.U.U.U.U.U.U.U.U.U.U.U.U.U.U.U.U.[ U.U.U.U.U.U.U.U.U.U.U.U.U.U.U.U.[ U.U.U.U.U.U.U.U.U.U.U.U.U.U.U.U.U.U.U.U.U.U.U.",
"U.U.U.U.U.U.U.U.U.U.U.U.U.U.U.U.U.U.U.U.U.U.[ U.U.U...U.U. .U.....U. .U.U...U.U.U.[ U.U.U.U.U.U.U.U.U.U.U.U.U.U.U.U.U.U.U.U.U.U.",
"U.U.U.U.U.U.U.U.U.U.U.U.U.U.U.U.U.U.U.U.U.| U.U..... .U. .U.X.X.X.X.U. .U. .....U.U.| U.U.U.U.U.U.U.U.U.U.U.U.U.U.U.U.U.U.U.U.U.",
"U.U.U.U.U.U.U.U.U.U.U.U.U.U.U.U.U.U.[ [ U.| ..U. .U.U.U.U.O.X.O.O.X.O.U.U.U.U. .U...| U.| [ U.U.U.U.U.U.U.U.U.U.U.U.U.U.U.U.U.U.",
"U.U.U.U.U.U.U.U.U.U.U.U.U.U.U.U.U.U.U.U.....X.U.X.U.U.U.U.U.U.@.O.U.U.U.U.U.U.X.U. . ...U.U.U.U.U.U.U.U.U.U.U.U.U.U.U.U.U.U.U.U.",
"U.U.U.U.U.U.U.U.U.U.U.U.U.U.U.U.U.U.U.U.U.U.U.X.O.O.O.@.U.U.#.#.#.#.U.U.#.O.O.O.O.U.U.U.U.U.U.U.U.U.U.U.U.U.U.U.U.U.U.U.U.U.U.U.",
"U.U.U.U.U.U.U.U.U.U.U.U.U.U.U.U.| U...X.U.X.X.O.U.U.U.U.U.U.U.#.#.U.U.U.U.U.U.U.O.O.X.U. . .U.| U.U.U.U.U.U.U.U.U.U.U.U.U.U.U.U.",
"U.U.U.U.U.U.U.U.U.U.U.U.U.` U.U.U...U.X.O.O.U.#.#.U.U.U.U.U.U.U.U.U.U.U.U.U.U.#.@.U.O.O.X.U...U.U.U.` U.U.U.U.U.U.U.U.U.U.U.U.U.",
"U.U.U.U.U.U.U.U.U.U.U.U.U.U.U.| U.U.U.U.U.O.U.#.#.U.U.U.U.%.%.%.%.%.&.U.U.U.U.#.#.U.O.U.U.U.U.U...U.U.U.U.U.U.U.U.U.U.U.U.U.U.U.",
"U.U.U.U.U.U.U.U.U.U.U.U.U.U.U...U. .U.U.@.U.U.U.#.U.U.U.&.U.U.U.U.U.U.&.U.U.U.%.U.U.U.#.U.U.X.U. .U.U.U.U.U.U.U.U.U.U.U.U.U.U.U.",
"U.U.U.U.U.U.U.U.U.U.U.U.[ | U.U.U.O.U.#.U.#.U.U.U.U.&.U.&.*.U.*.*.U.*.&.U.&.U.U.U.U.#.U.@.U.O.U.U.U.| [ U.U.U.U.U.U.U.U.U.U.U.U.",
"U.U.U.U.U.U.U.U.U.U.U.[ [ | ..U.X.O.U.U.U.#.U.&.U.*.&.U.U.U.U.U.U.U.U.U.U.&.&.U.&.U.#.U.U.U.O.X.U...| | [ U.U.U.U.U.U.U.U.U.U.U.",
"U.U.U.U.U.U.U.U.U.U.[ U.| U. .U.@.U.U.U.U.%.U.U.U.U.U.*.U.U.4.5.5.4.U.U.4.U.U.U.U.U.%.U.U.U.U.O.U. .U.| U.[ U.U.U.U.U.U.U.U.U.U.",
"U.U.U.U.U.U.U.U.U.U.U.U.U... .U.O.@.#.U.U.%.U.U.*.*.U.U.U.U.U.U.U.U.U.U.U.U.*.*.U.U.%.U.U.#.@.O.U.X. .U.U.U.U.U.U.U.U.U.U.U.U.U.",
"U.U.U.U.U.U.U.U.U.` U.U.U.U.U.O.@.@.#.U.%.U.U.*.U.U.U.U.U.U.U.o.} U.U.U.U.U.U.U.&.U.U.&.U.#.#.@.O.U.U.U.U.U.[ U.U.U.U.U.U.U.U.U.",
"U.U.U.U.U.U.U.U.U.U.U.U.U. .U.U.U.U.U.U.U.U.U.U.U.U.U.o.> T 0.0.0.0.T > { U.U.U.U.U.U.U.U.U.U.U.U.U. .U.U.U.U.U.U.U.U.U.U.U.U.U.",
"U.U.U.U.U.U.U.U.U.U.U... .U.U.@.U.U.U.%.U.U.U.U.U.U.J 0.0.0.0.0.0.0.0.0.8.> U.U.U.U.U.U.%.U.U.U.@.U.U. ...U.U.U.U.U.U.U.U.U.U.U.",
"U.U.U.U.U.U.U.U.U.U.U.U.U.U.U.O.U.U.U.U.U.U.*.4.U.9.r.e.0.0.0.0.0.0.0.0.0.0.K U.5.4.U.U.U.U.U.U.@.U.U.U.U.U.U.U.U.U.U.U.U.U.U.U.",
"U.U.U.U.U.U.U.U.U.U.U...U.X.U.U.U.U.U.U.&.U.U.U.q.e.0.0.0.0.0.0.0.0.0.0.0.0.0.L U.U.U.&.U.U.U.U.U.U.O.U...U.U.U.U.U.U.U.U.U.U.U.",
"U.U.U.U.U.U.U.U.U.U.U.U.U.X.O.U.U.U.%.U.*.U.U.G q.0.0.0.0.0.0.0.0.0.0.0.0.0.0.0.= U.U.*.U.&.U.U.U.O.X.U.U.U.U.U.U.U.U.U.U.U.U.U.",
"U.U.U.U.U.U.U.U.U.[ U.U.U.U.O.U.U.U.&.U.U.*.*.S.0.0.0.0.0.0.0.0.0.0.0.0.0.0.0.0.:.4.4.U.U.%.U.U.U.O.U.U.U.U.[ U.U.U.U.U.U.U.U.U.",
"U.U.U.U.U.U.U.U.U.U.|  . .O.O.@.#.U.%.&.*.*.M g.0.0.0.0.0.0.0.0.0.0.0.0.0.0.0.0.0.V *.*.&.%.U.#.#.O.O.X.....U.U.U.U.U.U.U.U.U.U.",
"U.U.U.U.U.U.U.U.U.U.| ..X.O.O.@.#.U.U.&.*.4.;.t.h.n.n.k.u.0.0.0.0.0.0.a.k.k.s.0.0.D 4.*.&.U.U.#.O.O.O. ...| U.U.U.U.U.U.U.U.U.U.",
"U.U.U.U.U.U.U.U.U.[ U.U.U.X.O.U.U.U.%.U.U.*.b.z.n.n.n.n.n.h.0.0.0.r.z.n.n.n.n.k.0.> *.U.U.&.U.U.U.O.X.U.U.U.[ U.U.U.U.U.U.U.U.U.",
"U.U.U.U.U.U.U.U.U.U.U...U.X.O.U.U.U.%.U.&.U.B.n.n.n.n.n.n.n.z.a.h.n.n.n.n.n.n.n.a.: U.*.U.%.U.U.U.O.O.U...U.U.U.U.U.U.U.U.U.U.U.",
"U.U.U.U.U.U.U.U.U.U.U...U.X.U.U.U.U.U.&.&.U.q.n.n.n.n.n.n.n.n.n.n.n.n.n.n.n.n.n.z.S U.&.&.U.U.U.U.U.X.U...U.U.U.U.U.U.U.U.U.U.U.",
"U.U.U.U.U.U.U.U.U.U.U.U.U.U.U.@.U.U.U.U.U.U.=.A.n.n.n.n.n.n.n.n.n.n.n.n.n.n.n.n.n.C U.U.U.U.U.U.@.U.U.U.U.U.U.U.U.U.U.U.U.U.U.U.",
"U.U.U.U.U.U.U.U.U.U.U.|  .U.U.@.U.U.U.%.U.*.M F.n.n.n.n.n.n.n.n.n.n.n.n.n.n.n.n.n.$.*.U.%.U.U.U.O.U.U. ...U.U.U.U.U.U.U.U.U.U.U.",
"U.U.U.U.U.U.U.U.U.U.U.U...X.U.U.U.U.U.U.U.U.U.J.n.n.n.k.l.n.n.n.n.n.n.n.n.n.n.n.y.U.U.U.U.U.U.U.U.U. . .U.U.U.U.U.U.U.U.U.U.U.U.",
"U.U.U.U.U.U.U.U.U._ U.U.U.U.U.X.O.#.#.U.%.U.c f.n.n.n.d.n.n.n.n.n.n.n.n.a.k.n.n.Y V U.%.U.#.#.@.O.U.U.U.U.U.` U.U.U.U.U.U.U.U.U.",
"U.U.U.U.U.U.U.U.U.U.U.U.U...X.U.@.O.#.U.U.U.z 1.Z.n.n.n.n.n.n.n.n.n.n.n.n.n.n.n.R m U.U.U.#.O.O.U.X. .U.U.U.U.U.U.U.U.U.U.U.U.U.",
"U.U.U.U.U.U.U.U.U.U.` U.| U. .U.X.U.#.U.U.#.U.9.G.n.n.n.n.n.n.n.n.n.n.n.n.n.n.n.K U.&.U.U.#.U.O.U. .U.| U.` U.U.U.U.U.U.U.U.U.U.",
"U.U.U.U.U.U.U.U.U.U.U.[ | | U.U.U.O.U.U.U.U.%.C L.n.d.I t.3.n.n.n.n.y.r.<.>.n.n.( #.U.U.U.U.O.U.U.U.| | [ U.U.U.U.U.U.U.U.U.U.U.",
"U.U.U.U.U.U.U.U.U.U.U.U.[ | U.U.U.O.U.O.U.#.U.U.q.m.n.n.n.n.n.n.n.n.n.n.n.n.n.<.U.U.#.U.O.U.O.U.U.U.| [ U.U.U.U.U.U.U.U.U.U.U.U.",
"U.U.U.U.U.U.U.U.U.U.U.U.U.U.U...U.X.U.U.O.U.U.U.( H.n.n.n.n.n.h.e.n.n.n.n.n.n.B U.U.U.@.U.U.X.U. .U.U.U.U.U.U.U.U.U.U.U.U.U.U.U.",
"U.U.U.U.U.U.U.U.U.U.U.U.U.U.U.| U.U.U.U.U.U.#.#.#.U.V.m.n.n.l.Y R d.n.n.n.d.# #.#.#.U.U.U.U.U.U.| U.U.U.U.U.U.U.U.U.U.U.U.U.U.U.",
"U.U.U.U.U.U.U.U.U.U.U.U.U.` U.U.U...U.X.X.O.U.@.O.U.U.1 q 2 F y.K k e l r q U.+.@.U.O.X.X.U...U.U.U.` U.U.U.U.U.U.U.U.U.U.U.U.U.",
"U.U.U.U.U.U.U.U.U.U.U.U.U.U.U.U.U.U... .U.X.O.O.U.Z ) ^ 8 p f c u 0 ~ W ^ s . U.O.O.O.U. ...U.U.U.U.U.U.U.U.U.U.U.U.U.U.U.U.U.U.",
"U.U.U.U.U.U.U.U.U.U.U.U.U.U.U.U.U.U...U. .U.U.X.P / Q ~ r f o 5 w 6 q ~ ~ f r e X.U.U. .U.| U.U.U.U.U.U.U.U.U.U.U.U.U.U.U.U.U.U.",
"U.U.U.U.U.U.U.U.U.U.U.U.U.U.U.U.U.U.[ | .. . .U.2.~ Q 6 X u 5 - G $ W q d d p 9 U. .....| | U.U.U.U.U.U.U.U.U.U.U.U.U.U.U.U.U.U.",
"U.U.U.U.U.U.U.U.U.U.U.U.U.U.U.U.U.U.[ U.U.| ..U.7.i W g p 0 H K D O o a Q ~ E f o ..| U.U.[ U.U.U.U.U.U.U.U.U.U.U.U.U.U.U.U.U.U.",
"U.U.U.U.U.U.U.U.U.U.U.U.U.U.U.U.U.U.U.U.U.| U.6.j ~ ~ d E ^ e.d.z.n.v ~ ~ ~ ~ g s U.| U.U.U.U.U.U.U.U.U.U.U.U.U.U.U.U.U.U.U.U.U.",
"U.U.U.U.U.U.U.U.U.U.U.U.U.U.U.U.U.U.U.U.U.U.U.C.~ ~ ~ a ^ n z.e.n.n.t.^ ~ ~ ~ ^ f n U.U.U.U.U.U.U.U.U.U.U.U.U.U.U.U.U.U.U.U.U.U.",
"U.U.U.U.U.U.U.U.U.U.U.U.U.U.U.U.U.U.U.U.U.U.U.w.~ ~ d ~ ~ @ ,.e >.x $ ^ ~ a r m q U.U.U.U.U.U.U.U.U.U.U.U.U.U.U.U.U.U.U.U.U.U.U.",
"U.U.U.U.U.U.U.U.U.U.U.U.U.U.U.U.U.U.U.U.U.U.U.+ v.G K.^ Q 3 & 4 4 & < f N H.c.^ ~ 1 U.U.U.U.U.U.U.U.U.U.U.U.U.U.U.U.U.U.U.U.U.U.",
"U.U.U.U.U.U.U.U.U.U.U.U.U.U.U.U.U.U.U.U.U.U.U.; L.I.I.h & $ 4 & $ $ f ;.K.~ ~ ~ ~ g U.U.U.U.U.U.U.U.U.U.U.U.U.U.U.U.U.U.U.U.U.U.",
"U.U.U.U.U.U.U.U.U.U.U.U.U.U.U.U.U.U.U.U.U.U.U.I.I.b.* $ < s f , & 3 7 P.~ ~ ~ ~ E g . U.U.U.U.U.U.U.U.U.U.U.U.U.U.U.U.U.U.U.U.U.",
"U.U.U.U.U.U.U.U.U.U.U.U.U.U.U.U.U.U.U.U.U.U.U.I.> r f E Q ~ Q f p , U / ~ ~ ~ ~ g f U.U.U.U.U.U.U.U.U.U.U.U.U.U.U.U.U.U.U.U.U.U.",
"U.U.U.U.U.U.U.U.U.U.U.U.U.U.U.U.U.U.U.U.U.U.U.- ^ ~ ~ ~ ~ ~ ~ ~ t S.+.~ ~ ~ ~ f f % U.U.U.U.U.U.U.U.U.U.U.U.U.U.U.U.U.U.U.U.U.U.",
"U.U.U.U.U.U.U.U.U.U.U.U.U.U.U.U.U.U.U.U.U.U.U.p.D.^ ~ ~ ~ ~ ~ d , -.y ~ ~ ~ g f < , U.U.U.U.U.U.U.U.U.U.U.U.U.U.U.U.U.U.U.U.U.U.",
"U.U.U.U.U.U.U.U.U.U.U.U.U.U.U.U.U.U.U.U.U.U.U.A ] N.M./ ~ ! f b.n.n.n.d ~ g q q s U.U.U.U.U.U.U.U.U.U.U.U.U.U.U.U.U.U.U.U.U.U.U.",
"U.U.U.U.U.U.U.U.U.U.U.U.U.U.U.U.U.U.U.U.U.U.U.U.; ) Q f q 1 8 1 F z.n.N E , 7 f 1 U.U.U.U.U.U.U.U.U.U.U.U.U.U.U.U.U.U.U.U.U.U.U.",
"U.U.U.U.U.U.U.U.U.U.U.U.U.U.U.U.U.U.U.U.U.U.U.U.U.U.U.U.U.U.U.U.  F y.. 9 f f f s X U.U.U.U.U.U.U.U.U.U.U.U.U.U.U.U.U.U.U.U.U.U.",
"U.U.U.U.U.U.U.U.U.U.U.U.U.U.U.U.U.U.U.U.U.U.U.U.U.U.U.U.U.U.U.U.U.U.U.U.U.U.U.U.U.U.U.U.U.U.U.U.U.U.U.U.U.U.U.U.U.U.U.U.U.U.U.U.",
"U.U.U.U.U.U.U.U.U.U.U.U.U.U.U.U.U.U.U.U.U.U.U.U.U.U.U.U.U.U.U.U.U.U.U.U.U.U.U.U.U.U.U.U.U.U.U.U.U.U.U.U.U.U.U.U.U.U.U.U.U.U.U.U.",
"U.U.U.U.U.U.U.U.U.U.U.U.U.U.U.U.U.U.U.U.U.U.U.U.U.U.U.U.U.U.U.U.U.U.U.U.U.U.U.U.U.U.U.U.U.U.U.U.U.U.U.U.U.U.U.U.U.U.U.U.U.U.U.U.",
"U.U.U.U.U.U.U.U.U.U.U.U.U.U.U.U.U.U.U.U.U.U.U.U.U.U.U.U.U.U.U.U.U.U.U.U.U.U.U.U.U.U.U.U.U.U.U.U.U.U.U.U.U.U.U.U.U.U.U.U.U.U.U.U.",
"U.U.U.U.U.U.U.U.U.U.U.U.U.U.U.U.U.U.U.U.U.U.U.U.U.U.U.U.U.U.U.U.U.U.U.U.U.U.U.U.U.U.U.U.U.U.U.U.U.U.U.U.U.U.U.U.U.U.U.U.U.U.U.U.",
"U.U.U.U.U.U.U.U.U.U.U.U.U.U.U.U.U.U.U.U.U.U.U.U.U.U.U.U.U.U.U.U.U.U.U.U.U.U.U.U.U.U.U.U.U.U.U.U.U.U.U.U.U.U.U.U.U.U.U.U.U.U.U.U.",
"U.U.U.U.U.U.U.U.U.U.U.U.U.U.U.U.U.U.U.U.U.U.U.U.U.U.U.U.U.U.U.U.U.U.U.U.U.U.U.U.U.U.U.U.U.U.U.U.U.U.U.U.U.U.U.U.U.U.U.U.U.U.U.U."
};
